<svg width="641" height="431" viewBox="0 0 641 431" fill="none" xmlns="http://www.w3.org/2000/svg">
<path fill-rule="evenodd" clip-rule="evenodd" d="M211.388 -283.911C283.949 -278.455 315.255 -189.312 374.18 -146.617C421.695 -112.189 484.301 -104.054 521.845 -58.9612C567.093 -4.61526 619.899 61.4496 604.967 130.572C590.037 199.685 505.466 223.734 451.028 268.857C401.587 309.838 363.204 365.543 301.223 382.343C234.21 400.508 153.649 406.93 98.8277 364.324C44.9648 322.464 65.569 236.103 34.7469 175.246C2.82432 112.217 -81.9562 75.9316 -83.0146 5.28729C-84.0918 -66.6121 -21.7611 -122.138 29.5365 -172.529C81.5183 -223.592 138.726 -289.374 211.388 -283.911Z" fill="url(#paint0_linear)"/>
<defs>
<linearGradient id="paint0_linear" x1="216.281" y1="-287.062" x2="306.95" y2="385.378" gradientUnits="userSpaceOnUse">
<stop stop-color="#6C63FF"/>
<stop offset="1" stop-color="#E3216D"/>
</linearGradient>
</defs>
</svg>
