<svg width="597" height="375" viewBox="0 0 597 375" fill="none" xmlns="http://www.w3.org/2000/svg">
<path fill-rule="evenodd" clip-rule="evenodd" d="M328.388 48.089C400.949 53.5447 432.255 142.688 491.18 185.383C538.695 219.811 601.301 227.946 638.845 273.039C684.093 327.385 736.899 393.45 721.967 462.572C707.037 531.685 622.466 555.734 568.028 600.857C518.587 641.838 480.204 697.543 418.223 714.343C351.21 732.508 270.649 738.93 215.828 696.324C161.965 654.464 182.569 568.103 151.747 507.246C119.824 444.217 35.0438 407.932 33.9854 337.287C32.9082 265.388 95.2389 209.862 146.536 159.471C198.518 108.408 255.726 42.6259 328.388 48.089Z" fill="url(#paint0_linear)"/>
<defs>
<linearGradient id="paint0_linear" x1="333.281" y1="44.9384" x2="423.95" y2="717.378" gradientUnits="userSpaceOnUse">
<stop stop-color="#6C63FF"/>
<stop offset="1" stop-color="#E3216D"/>
</linearGradient>
</defs>
</svg>
