<svg width="449" height="271" viewBox="0 0 449 271" fill="none" xmlns="http://www.w3.org/2000/svg">
<path d="M305.463 154.346L309.314 153.68C309.683 153.615 310.05 153.536 310.418 153.469C304.325 149.687 299.699 143.944 297.301 137.184C294.902 130.425 294.875 123.051 297.222 116.273C299.57 109.496 304.153 103.719 310.218 99.8905C316.283 96.0624 323.47 94.4112 330.598 95.2082L325.552 107.216L337.508 96.7766C337.536 96.7835 337.563 96.7927 337.589 96.8039C341.505 98.1828 345.11 100.319 348.199 103.091C351.288 105.864 353.801 109.217 355.595 112.961C357.388 116.704 358.426 120.764 358.65 124.909C358.874 129.053 358.28 133.202 356.901 137.117C356.701 137.686 356.463 138.23 356.234 138.78C359.61 137.084 362.847 135.11 365.488 132.582C370.833 127.46 373.762 120.391 377.035 111.682C383.52 94.4246 389.763 76.9172 395.757 59.3717C389.146 55.7943 384.027 49.9769 381.32 42.9646C378.612 35.9522 378.494 28.2043 380.986 21.1126C381.307 20.2003 381.679 19.3217 382.074 18.4589C382.172 18.2429 382.272 18.0283 382.375 17.8155C382.776 16.9883 383.199 16.1777 383.663 15.3999C383.739 15.2724 383.824 15.153 383.901 15.0269C384.305 14.371 384.732 13.7346 385.18 13.1176C385.347 12.8859 385.514 12.6549 385.686 12.4287C386.194 11.7643 386.72 11.1179 387.275 10.5007C387.461 10.2942 387.657 10.1012 387.848 9.90007C388.274 9.45031 388.712 9.01412 389.162 8.59151C389.399 8.36902 389.633 8.14493 389.876 7.93032C389.939 7.87527 389.997 7.81517 390.06 7.76057C390.063 7.76459 390.066 7.76892 390.069 7.7729C395.636 2.92131 402.727 0.173823 410.11 0.00797256C417.493 -0.157878 424.7 2.26838 430.48 6.86507L423.913 22.4912L435.733 12.1759C439.87 17.4461 442.214 23.9001 442.424 30.5965C442.634 37.2928 440.699 43.8811 436.901 49.4003C436.912 49.4042 436.923 49.4071 436.934 49.4109C436.805 49.6006 436.659 49.7742 436.526 49.9605C436.277 50.3101 436.022 50.6536 435.76 50.9907C435.425 51.4232 435.076 51.8411 434.72 52.2533C434.451 52.5644 434.186 52.8781 433.906 53.1774C433.497 53.6153 433.068 54.0298 432.637 54.4421C432.385 54.6825 432.144 54.9352 431.885 55.1668C431.205 55.7737 430.502 56.3496 429.776 56.8944C429.521 57.0852 429.252 57.2536 428.992 57.4363C428.482 57.7951 427.97 58.1485 427.44 58.4759C427.112 58.679 426.774 58.8646 426.439 59.0555C425.953 59.332 425.464 59.6 424.965 59.8503C424.611 60.0277 424.255 60.1961 423.894 60.3602C423.382 60.5938 422.863 60.8105 422.338 61.0166C421.986 61.1549 421.636 61.2949 421.28 61.4206C420.691 61.6279 420.094 61.808 419.493 61.9805C419.189 62.0676 418.891 62.1674 418.585 62.2454C417.684 62.4753 416.772 62.671 415.85 62.8209C415.677 62.8492 415.5 62.8599 415.326 62.8852C414.562 62.9964 413.793 63.0862 413.019 63.141C412.686 63.1645 412.351 63.1678 412.017 63.1809C411.391 63.2052 410.764 63.2176 410.134 63.2042C409.767 63.1964 409.4 63.1774 409.031 63.1566C408.418 63.1219 407.804 63.0684 407.189 62.9963C406.826 62.9542 406.463 62.9124 406.1 62.8574C405.441 62.7575 404.784 62.6268 404.126 62.4837C404.083 62.4744 404.039 62.4687 403.996 62.4591C401.466 69.8613 398.889 77.2477 396.266 84.6182C399.466 81.7409 403.22 79.5477 407.298 78.1734C411.375 76.799 415.691 76.2725 419.98 76.626C424.269 76.9795 428.44 78.2057 432.238 80.2292C436.035 82.2528 439.379 85.031 442.065 88.3935L431.138 100.478L445.933 94.572C449.526 102.108 449.981 110.762 447.197 118.633C446.233 121.399 444.881 124.014 443.182 126.401C439.527 131.571 434.402 135.524 428.473 137.746C422.543 139.969 416.083 140.358 409.93 138.864C403.776 137.37 398.214 134.061 393.964 129.367C389.714 124.673 386.972 118.81 386.095 112.539C385.817 113.282 385.549 114.034 385.27 114.776C382.382 122.459 378.788 132.02 371.572 138.933C366.681 143.618 360.662 146.591 354.888 149.104C351.128 150.74 347.318 152.253 343.458 153.643C339.167 156.244 334.319 157.789 329.314 158.15C323.223 159.842 317.056 161.255 310.831 162.345L306.949 163.014C303.461 163.612 299.884 164.227 296.334 164.936C296.845 165.088 297.357 165.232 297.865 165.411C304.191 167.637 309.644 171.817 313.438 177.346C317.232 182.876 319.17 189.468 318.971 196.171L294.637 203.64L316.657 207.137C314.643 212.087 311.406 216.446 307.251 219.807C303.095 223.167 298.155 225.42 292.893 226.353C287.631 227.287 282.218 226.872 277.159 225.147C272.101 223.422 267.563 220.442 263.968 216.487C264.191 217.236 264.416 217.984 264.641 218.731C265.088 220.214 265.532 221.689 265.957 223.15C271.752 243.06 269.258 258.721 258.935 267.247L253.333 260.467C263.38 252.167 260.263 235.064 257.513 225.607C257.094 224.172 256.658 222.723 256.219 221.266C252.445 208.729 248.167 194.518 253.708 181.46C262.058 161.778 286.125 157.657 305.463 154.346Z" fill="#73719C"/>
<path d="M298.331 269.801H127.834C122.243 269.801 116.881 267.58 112.927 263.627C108.974 259.673 106.753 254.311 106.753 248.72V170.607C106.753 169.472 106.984 168.35 107.432 167.308C107.88 166.266 108.536 165.326 109.359 164.545L199.706 78.9041C203.318 75.48 208.106 73.5714 213.083 73.5714C218.06 73.5714 222.848 75.48 226.46 78.9041L312.601 160.558C314.753 162.598 316.466 165.055 317.638 167.779C318.809 170.503 319.413 173.437 319.413 176.402V248.72C319.413 251.488 318.867 254.23 317.808 256.787C316.749 259.345 315.196 261.669 313.238 263.627C311.281 265.584 308.957 267.137 306.399 268.197C303.841 269.256 301.1 269.801 298.331 269.801Z" fill="#3F3D56"/>
<path opacity="0.1" d="M106.753 171.889H317.641V257.072C317.641 260.448 316.299 263.686 313.912 266.073C311.525 268.46 308.287 269.801 304.911 269.801H119.482C116.106 269.801 112.868 268.46 110.481 266.073C108.094 263.686 106.753 260.448 106.753 257.072V171.889Z" fill="black"/>
<path d="M279.68 104.768H146.042C139.636 104.768 134.443 109.961 134.443 116.368V250.006C134.443 256.412 139.636 261.605 146.042 261.605H279.68C286.086 261.605 291.28 256.412 291.28 250.006V116.368C291.28 109.961 286.086 104.768 279.68 104.768Z" fill="#6C63FF"/>
<path opacity="0.1" d="M291.279 175.411V261.605H134.443V175.411L212.861 213.314L291.279 175.411Z" fill="black"/>
<path d="M212.861 218.187L112.382 169.622C111.761 169.322 111.073 169.184 110.384 169.222C109.695 169.26 109.026 169.472 108.441 169.839C107.857 170.206 107.375 170.715 107.041 171.319C106.706 171.923 106.531 172.602 106.531 173.293V256.85C106.531 258.522 106.86 260.177 107.5 261.721C108.14 263.266 109.078 264.669 110.26 265.851C111.442 267.033 112.845 267.971 114.389 268.611C115.934 269.25 117.589 269.58 119.261 269.58H306.462C308.133 269.58 309.789 269.25 311.333 268.611C312.877 267.971 314.281 267.033 315.463 265.851C316.645 264.669 317.582 263.266 318.222 261.721C318.862 260.177 319.191 258.522 319.191 256.85V174.724C319.191 173.882 318.977 173.053 318.57 172.316C318.162 171.579 317.574 170.957 316.86 170.51C316.147 170.062 315.331 169.803 314.49 169.757C313.649 169.71 312.81 169.878 312.052 170.245L212.861 218.187Z" fill="#3F3D56"/>
<path d="M191.817 119.167H147.956V125.37H191.817V119.167Z" fill="#F2F2F2"/>
<path d="M274.666 141.762H144.411V145.307H274.666V141.762Z" fill="#F2F2F2"/>
<path d="M274.666 153.724H144.411V157.269H274.666V153.724Z" fill="#F2F2F2"/>
<path d="M274.666 165.686H144.411V169.231H274.666V165.686Z" fill="#F2F2F2"/>
<path d="M27.0052 269.58H392.072" stroke="#3F3D56" stroke-miterlimit="10"/>
<path d="M0 215.024C0 241.146 16.3875 262.284 36.6393 262.284L0 215.024Z" fill="#46455B"/>
<path d="M36.6393 262.284C36.6393 235.868 54.9267 214.493 77.5265 214.493L36.6393 262.284Z" fill="#6C63FF"/>
<path d="M13.2751 217.392C13.2751 242.205 23.7251 262.284 36.6393 262.284L13.2751 217.392Z" fill="#6C63FF"/>
<path d="M36.6393 262.284C36.6393 228.531 57.7767 201.218 83.8986 201.218L36.6393 262.284Z" fill="#46455B"/>
<path d="M28.9313 262.617C28.9313 262.617 34.1274 262.457 35.6933 261.342C37.2593 260.227 43.6861 258.895 44.0746 260.683C44.4631 262.472 51.8833 269.578 46.017 269.625C40.1507 269.673 32.3863 268.712 30.8234 267.759C29.2604 266.807 28.9313 262.617 28.9313 262.617Z" fill="#A8A8A8"/>
<path opacity="0.2" d="M46.1217 269.003C40.2554 269.05 32.491 268.089 30.928 267.137C29.7378 266.412 29.2635 263.81 29.1048 262.61C28.9949 262.615 28.9313 262.617 28.9313 262.617C28.9313 262.617 29.2604 266.807 30.8234 267.759C32.3863 268.712 40.1507 269.673 46.017 269.625C47.7104 269.612 48.2953 269.009 48.2632 268.117C48.0279 268.656 47.3821 268.993 46.1217 269.003Z" fill="black"/>
<path d="M318.863 72.1068C318.597 74.479 316.787 76.39 316.117 78.6811C315.108 82.1295 316.853 85.83 319.239 88.5156C321.165 90.6598 323.498 92.4004 326.101 93.6366C328.705 94.8728 331.527 95.5799 334.406 95.7171C335.252 95.7914 336.104 95.6986 336.914 95.4438C337.637 95.1528 338.288 94.7079 338.822 94.1399C340.619 92.335 341.584 89.8342 341.969 87.3161C342.353 84.798 342.204 82.2326 342.054 79.6897C342.054 79.1641 341.959 78.6427 341.772 78.1515C341.527 77.6835 341.19 77.2696 340.782 76.9343C339.488 75.7472 338.062 74.7116 336.533 73.8479C335.842 73.5382 335.232 73.0718 334.753 72.4856C334.464 71.9835 334.277 71.4292 334.202 70.8546L333.733 68.4627C333.649 67.7734 333.414 67.1112 333.044 66.5237C332.214 65.4052 330.628 65.253 329.237 65.1984L324.14 64.9984C322.554 64.9362 320.465 64.4816 318.917 64.7929C317.472 65.0837 317.952 66.4156 318.214 67.6284C318.595 69.0927 318.813 70.5946 318.863 72.1068Z" fill="#B0757D"/>
<path opacity="0.1" d="M318.863 72.1068C318.597 74.479 316.787 76.39 316.117 78.6811C315.108 82.1295 316.853 85.83 319.239 88.5156C321.165 90.6598 323.498 92.4004 326.101 93.6366C328.705 94.8728 331.527 95.5799 334.406 95.7171C335.252 95.7914 336.104 95.6986 336.914 95.4438C337.637 95.1528 338.288 94.7079 338.822 94.1399C340.619 92.335 341.584 89.8342 341.969 87.3161C342.353 84.798 342.204 82.2326 342.054 79.6897C342.054 79.1641 341.959 78.6427 341.772 78.1515C341.527 77.6835 341.19 77.2696 340.782 76.9343C339.488 75.7472 338.062 74.7116 336.533 73.8479C335.842 73.5382 335.232 73.0718 334.753 72.4856C334.464 71.9835 334.277 71.4292 334.202 70.8546L333.733 68.4627C333.649 67.7734 333.414 67.1112 333.044 66.5237C332.214 65.4052 330.628 65.253 329.237 65.1984L324.14 64.9984C322.554 64.9362 320.465 64.4816 318.917 64.7929C317.472 65.0837 317.952 66.4156 318.214 67.6284C318.595 69.0927 318.813 70.5946 318.863 72.1068Z" fill="white"/>
<path d="M351.288 178.885C350.566 186.803 349.844 194.72 349.122 202.635C348.556 208.865 347.98 215.12 346.871 221.269C346.488 223.388 346.04 225.496 345.507 227.586C344.027 233.389 341.878 239.06 341.185 245.009C341.164 245.18 341.145 245.355 341.127 245.53C341.049 246.846 340.801 248.145 340.387 249.396C340.04 250.305 339.508 251.132 339.132 252.03C338.384 253.824 338.286 255.808 338.195 257.752C335.565 256.273 332.686 255.289 329.7 254.849C328.26 254.634 326.655 254.481 325.674 253.405C324.587 252.216 324.707 250.396 324.89 248.798C325.462 243.838 326.034 238.88 326.604 233.925C326.79 231.793 327.152 229.68 327.687 227.608C327.884 226.919 328.121 226.24 328.362 225.562C328.694 224.628 329.029 223.694 329.281 222.735C329.644 221.185 329.897 219.612 330.039 218.027C330.627 213.037 331.334 208.059 331.954 203.073L331.987 202.81C332.917 195.253 333.625 187.66 333.42 180.048C333.391 178.921 333.344 177.794 333.271 176.663C333.169 175.026 333.019 174.158 334.376 173.133C335.875 172.002 337.848 171.211 339.562 170.47C340.485 170.069 350.646 166.462 350.883 167.254C351.36 168.942 351.61 170.686 351.627 172.44C351.635 174.593 351.521 176.744 351.288 178.885Z" fill="#605D82"/>
<path opacity="0.1" d="M346.871 221.269C346.488 223.388 346.04 225.496 345.507 227.586C344.027 233.389 341.878 239.06 341.185 245.009C341.164 245.18 341.145 245.355 341.127 245.53C336.597 239.06 332.782 232.101 328.362 225.562C328.694 224.628 329.029 223.694 329.281 222.735C329.644 221.185 329.897 219.612 330.039 218.027C330.627 213.037 331.334 208.059 331.954 203.073L331.987 202.81C332.247 203.869 332.617 204.897 333.092 205.878C336.061 211.91 343.115 214.959 346.565 220.733C346.671 220.912 346.773 221.09 346.871 221.269Z" fill="black"/>
<path d="M310.115 168.224C310.264 173.062 311.039 177.857 311.812 182.636L313.406 192.495C314.279 197.891 315.188 203.397 317.741 208.23C319.652 211.845 322.404 214.93 324.893 218.174C331.014 226.148 335.612 235.181 341.416 243.389C343.103 245.774 345.515 248.354 348.394 247.856C350.283 247.529 351.656 245.956 353.141 244.743C354.892 243.313 357.003 242.267 358.38 240.474C359.758 238.681 360.028 235.702 358.162 234.426C357.486 234.052 356.769 233.759 356.025 233.552C353.131 232.452 351.258 229.626 350.067 226.769C348.875 223.911 348.153 220.839 346.565 218.181C343.115 212.408 336.06 209.359 333.09 203.324C331.427 199.944 331.269 196.048 331.142 192.284L330.818 182.686C330.782 181.637 330.754 180.545 331.181 179.586C332.317 177.031 335.747 176.793 338.524 176.469C341.675 176.1 344.729 175.137 347.522 173.63C349.121 172.767 350.684 171.665 351.54 170.062C352.32 168.598 352.428 166.882 352.52 165.226L353.481 147.834C353.564 146.337 353.639 144.79 353.112 143.387C351.788 139.865 347.34 138.714 343.58 138.882C336.585 139.195 330.127 142.204 323.531 144.236C321.897 144.751 320.238 145.184 318.561 145.532C317.08 145.829 315.289 145.706 313.877 146.182C311.366 147.029 311.43 152.52 311.074 154.797C310.339 159.233 310.017 163.728 310.115 168.224Z" fill="#605D82"/>
<path d="M347.444 248.585C348.061 249.207 348.262 250.119 348.423 250.98C349.314 255.757 349.778 260.605 349.808 265.464C349.767 265.918 349.857 266.373 350.069 266.776C350.242 267.017 350.478 267.206 350.75 267.324C352.533 268.174 354.602 266.99 356.088 265.688C358.842 263.276 361.172 260.037 361.329 256.379C361.3 255.437 361.333 254.494 361.428 253.556C361.67 252.179 362.474 250.979 363.182 249.774C364.388 247.722 365.361 245.542 366.082 243.274C366.353 242.422 366.533 241.349 365.865 240.754C365.629 240.568 365.36 240.428 365.072 240.341L357.018 237.351C356.32 237.092 354.583 241.553 354.308 242.041C353.633 243.233 352.963 243.911 351.61 244.186C350.229 244.467 348.586 244.064 347.297 244.753C345.118 245.918 346.21 247.341 347.444 248.585Z" fill="#535070"/>
<path d="M335.017 251.338C334.867 251.04 334.658 250.776 334.404 250.561C334.031 250.325 333.607 250.181 333.167 250.141C331.634 249.881 329.816 249.709 328.758 250.849C327.766 251.917 327.937 253.658 327.107 254.857C326.844 255.237 326.489 255.55 326.261 255.951C325.978 256.565 325.851 257.239 325.89 257.913C325.847 259.772 325.804 261.634 325.933 263.488C326.04 265.043 326.302 266.671 327.274 267.889C328.834 269.843 331.648 270.124 334.145 270.251L336.168 270.354C336.725 270.421 337.29 270.37 337.825 270.202C338.157 270.049 338.454 269.83 338.7 269.56C338.945 269.29 339.134 268.973 339.255 268.629C340.308 266.012 338.64 263.193 337.613 260.566C336.433 257.546 336.645 254.193 335.017 251.338Z" fill="#535070"/>
<path d="M318.277 58.7399C318.252 58.4746 318.291 58.2072 318.391 57.9601C318.687 57.4363 319.46 57.5788 320.044 57.7259C322.391 58.3176 324.863 57.782 327.279 57.9203C329.696 58.0585 332.417 59.2664 332.903 61.6372C334.657 60.3939 336.169 58.8406 337.364 57.0538C338.034 56.0503 338.619 54.9009 338.528 53.6974C338.396 51.9616 336.94 50.6634 335.591 49.5626L331.571 46.281C331.044 45.7961 330.434 45.4086 329.771 45.1367C328.843 44.8194 327.831 44.9706 326.85 44.9712C323.924 44.9731 320.804 43.6414 318.201 44.9791C317.114 45.538 316.296 46.4956 315.507 47.4293L311.92 51.6763C311.649 51.9469 311.452 52.2815 311.346 52.6488C311.244 53.1672 311.51 53.6788 311.603 54.1989C311.773 55.1477 311.364 56.1603 311.678 57.0714C312.2 58.584 314.036 58.7981 315.159 59.6653C315.577 59.9885 316.233 61.0838 316.732 61.0704C317.631 61.0463 318.253 59.4388 318.277 58.7399Z" fill="#3F3D56"/>
<path d="M324.364 71.2586C330.71 71.2586 335.853 66.115 335.853 59.7699C335.853 53.4248 330.71 48.2811 324.364 48.2811C318.019 48.2811 312.876 53.4248 312.876 59.7699C312.876 66.115 318.019 71.2586 324.364 71.2586Z" fill="#C4939A"/>
<path d="M327.055 84.9132C326.666 83.7967 325.93 82.8334 324.956 82.1629C323.982 81.4925 322.819 81.1499 321.637 81.1847C321.299 81.2476 320.95 81.2034 320.638 81.0583C320.461 80.9228 320.321 80.7466 320.227 80.5448C319.528 79.2885 318.967 77.9608 318.552 76.5846C318.369 75.9765 318.118 75.2596 317.503 75.1015C317.248 75.0682 316.989 75.1047 316.754 75.2072C316.518 75.3096 316.315 75.4742 316.166 75.6832C315.873 76.104 315.554 76.5053 315.21 76.8845C313.765 78.1765 311.203 76.9989 309.67 78.1842C309.419 78.3779 309.213 78.6259 308.949 78.802C308.686 78.9605 308.402 79.0822 308.106 79.1636C305.144 80.1305 302.241 81.2676 299.411 82.5692C300.431 88.7128 301.476 94.9635 303.867 100.714C305.005 103.45 306.295 106.13 307.206 108.951C309.225 115.199 309.315 121.885 309.337 128.451C309.353 132.945 309.331 137.536 307.877 141.788C307.485 142.728 307.21 143.712 307.055 144.718C306.968 145.731 307.263 146.849 308.084 147.449C308.56 147.76 309.104 147.952 309.67 148.006C312.19 148.376 314.73 147.705 317.21 147.131C323.86 145.591 330.641 144.71 337.41 143.831L348.751 142.358C349.564 142.303 350.36 142.098 351.098 141.752C353.173 140.616 353.37 137.494 352.082 135.509C351.464 134.558 350.592 133.778 350.073 132.769C349.554 131.76 349.509 130.35 350.403 129.652C352.221 128.231 351.679 125.594 351.766 123.288C352.008 116.841 351.975 110.391 351.667 103.939C351.576 102.603 351.555 101.264 351.603 99.9257C351.805 97.6586 352.224 95.4162 352.854 93.2292L356.3 79.6597C355.4 78.2371 353.676 77.3344 352.043 76.9246C350.41 76.5148 348.71 76.3942 347.101 75.8959C343.807 74.875 340.874 72.2842 337.433 72.5257C337.173 72.5304 336.917 72.5929 336.684 72.7087C335.908 73.1483 336.031 74.2665 335.981 75.157C335.871 77.1272 334.422 78.7738 332.822 79.9282C331.222 81.0827 329.394 81.9245 327.924 83.2411C327.664 83.4373 327.451 83.6894 327.3 83.9787C327.15 84.268 327.066 84.5873 327.055 84.9132Z" fill="#3F3D56"/>
<path d="M281.533 97.7843C280.771 98.2786 279.962 98.6952 279.116 99.0277C278.289 99.2739 277.507 99.6533 276.802 100.151C276.476 100.432 276.204 100.769 275.997 101.146C275.608 101.835 275.411 102.617 275.427 103.408C275.443 104.2 275.672 104.973 276.088 105.646C276.505 106.319 277.095 106.868 277.796 107.236C278.497 107.603 279.284 107.776 280.075 107.735C281.126 107.618 282.147 107.313 283.091 106.836L291.194 103.325C292.566 102.731 294.047 102.034 294.696 100.687C294.771 100.562 294.799 100.413 294.774 100.269C294.709 100.116 294.591 99.9915 294.442 99.9186C292.614 98.7316 291.015 97.2244 289.723 95.4694C289.391 95.0181 288.984 93.9523 288.514 93.6816C286.799 92.6939 282.906 96.8933 281.533 97.7843Z" fill="#C4939A"/>
<path d="M368.16 94.903L371.147 98.3157C371.789 99.0483 372.431 99.7818 373.015 100.56C374.451 102.539 375.603 104.709 376.437 107.006C377.086 108.71 377.625 110.526 377.398 112.335C377.248 113.263 376.997 114.171 376.651 115.045C376.104 116.725 375.425 118.36 374.621 119.934C373.945 121.13 373.182 122.274 372.337 123.357C370.024 126.423 367.493 129.318 364.764 132.02C363.742 133.031 363.314 134.666 362.869 136.032C362.049 138.553 360.098 140.516 358.211 142.378C357.605 143.019 356.934 143.595 356.211 144.099C355.127 144.798 353.86 145.158 352.571 145.136C352.006 145.14 351.448 145.024 350.931 144.797C349.64 144.184 348.984 142.69 348.849 141.267C348.729 139.976 348.945 138.675 349.477 137.492C351.192 133.695 355.594 132.049 358.706 129.278C360.53 127.653 361.926 125.612 363.302 123.594C364.237 122.333 365.017 120.965 365.626 119.519C366.321 117.665 366.051 115.47 366.658 113.585C366.915 112.788 367.371 112.069 367.647 111.279C367.923 110.488 367.992 109.55 367.509 108.866C367.145 108.432 366.681 108.092 366.157 107.876C364.169 106.867 361.943 105.569 361.562 103.372C361.411 102.154 361.729 100.924 362.452 99.9323C363.173 98.9539 364.015 98.0711 364.959 97.3052C365.828 96.5364 367.29 95.6717 368.16 94.903Z" fill="#C4939A"/>
<path d="M279.615 102.548C279.088 101.483 278.428 100.395 277.364 99.8656C276.848 99.6415 276.291 99.5247 275.729 99.5224C275.166 99.52 274.609 99.6321 274.091 99.8518C273.059 100.297 272.092 100.881 271.219 101.589L268.644 103.487C268.06 103.87 267.543 104.347 267.115 104.898C266.709 105.567 266.438 106.309 266.319 107.083C265.87 108.846 265.733 110.675 265.914 112.486C266.323 115.39 268.073 117.925 270 120.136C271.204 121.517 272.691 122.911 274.523 122.97C275.313 122.995 276.192 122.683 276.521 121.964C276.635 121.679 276.696 121.375 276.7 121.068C276.898 117.829 275.739 114.665 274.388 111.715C273.957 110.942 273.702 110.084 273.642 109.202C273.633 109.053 273.671 108.906 273.752 108.781C273.869 108.66 274.025 108.583 274.192 108.566C276.041 108.2 279.227 109.637 280.524 107.583C281.365 106.252 280.213 103.755 279.615 102.548Z" fill="#C4939A"/>
<path d="M317.674 55.1249C317.65 54.8596 317.689 54.5923 317.788 54.3451C318.084 53.8213 318.858 53.9638 319.441 54.1109C321.788 54.7026 324.261 54.167 326.677 54.3053C329.093 54.4435 331.815 55.6514 332.301 58.0222C334.054 56.7789 335.566 55.2256 336.761 53.4388C337.432 52.4353 338.016 51.2859 337.925 50.0824C337.793 48.3466 336.337 47.0484 334.989 45.9476L330.969 42.666C330.441 42.1811 329.832 41.7936 329.169 41.5217C328.241 41.2044 327.228 41.3556 326.247 41.3562C323.321 41.3581 320.201 40.0264 317.599 41.3642C316.512 41.923 315.694 42.8806 314.905 43.8143L311.317 48.0613C311.047 48.3319 310.85 48.6665 310.743 49.0338C310.641 49.5522 310.908 50.0638 311.001 50.5839C311.17 51.5327 310.761 52.5453 311.076 53.4564C311.597 54.969 313.434 55.1831 314.556 56.0503C314.975 56.3735 315.631 57.4688 316.129 57.4554C317.029 57.4313 317.651 55.8238 317.674 55.1249Z" fill="#3F3D56"/>
<path d="M293.273 86.6093C292.809 86.9085 292.402 87.2875 292.071 87.7288C291.649 88.3657 291.564 89.1697 291.202 89.8421C290.428 91.2809 288.617 91.7927 287.487 92.9731C287.308 93.1354 287.183 93.3494 287.13 93.5855C287.125 93.9059 287.232 94.218 287.433 94.4671L292.881 103.032C294.695 103.191 296.436 102.055 298.25 102.206C298.928 102.262 299.621 102.496 300.271 102.296C300.736 102.09 301.172 101.823 301.568 101.503C302.65 100.818 304.092 100.739 305 99.8355C305.872 98.9688 305.983 97.6126 305.973 96.3834C305.987 95.3159 305.879 94.2503 305.649 93.2078C304.847 89.9203 302.333 87.3975 300.756 84.4854C299.989 83.0677 299.572 82.2377 297.947 83.2112C296.315 84.1897 294.81 85.4858 293.273 86.6093Z" fill="#3F3D56"/>
<path d="M359.438 82.2782C360.461 82.9431 361.384 83.7516 362.178 84.6789C363.008 85.7491 363.478 87.0587 364.276 88.1535C365.048 89.2146 366.1 90.0364 366.977 91.0135C368.306 92.4953 369.207 94.3032 370.091 96.0868C367.931 98.9034 365.576 101.565 363.044 104.051C362.762 104.384 362.39 104.628 361.974 104.755C361.69 104.785 361.404 104.744 361.14 104.637C360.876 104.529 360.643 104.358 360.461 104.138C360.069 103.726 359.79 103.219 359.415 102.792C358.53 101.878 357.35 101.308 356.085 101.181C354.83 101.059 353.568 101.042 352.311 101.129C352.035 101.159 351.756 101.112 351.505 100.993C351.318 100.865 351.167 100.691 351.065 100.489C349.59 97.9789 350.065 94.8276 350.585 91.9632L351.779 85.3905C351.952 84.1352 352.286 82.9075 352.773 81.7375C353.225 80.771 354.237 79.1318 355.48 79.4212C356.734 79.7129 358.383 81.5196 359.438 82.2782Z" fill="#3F3D56"/>
</svg>
