<svg width="233" height="383" viewBox="0 0 233 383" fill="none" xmlns="http://www.w3.org/2000/svg">
<path d="M193.624 160.31C193.92 160.438 194.189 160.622 194.414 160.854C194.639 161.085 194.816 161.359 194.936 161.659C195.055 161.959 195.115 162.28 195.11 162.602C195.106 162.925 195.038 163.244 194.91 163.541L191.571 171.297L191.949 171.49L189.672 176.755L189.308 176.553L177.345 204.339C176.936 205.29 176.194 206.06 175.259 206.504C174.324 206.949 173.259 207.038 172.263 206.755L153.663 201.47C153.21 201.341 152.791 201.115 152.434 200.807C152.078 200.5 151.794 200.118 151.601 199.688C151.408 199.259 151.311 198.792 151.317 198.322C151.324 197.851 151.433 197.387 151.638 196.963L170.385 158.086C170.779 157.269 171.439 156.611 172.257 156.219C173.074 155.827 174.001 155.725 174.884 155.93L193.186 160.168C193.336 160.202 193.483 160.249 193.624 160.31Z" fill="#3F3D56"/>
<path d="M178.142 158.925L187.764 161.154C187.937 161.194 188.119 161.176 188.281 161.102C188.443 161.029 188.576 160.904 188.66 160.747C188.754 160.57 188.905 160.428 189.089 160.345C189.272 160.262 189.477 160.241 189.674 160.287L191.7 160.756C191.977 160.82 192.236 160.944 192.46 161.119C192.683 161.294 192.865 161.516 192.993 161.77C193.122 162.023 193.193 162.301 193.202 162.585C193.211 162.869 193.157 163.151 193.045 163.412L175.732 203.709C175.517 204.209 175.125 204.613 174.632 204.842C174.139 205.072 173.578 205.112 173.057 204.955L154.587 199.383C154.352 199.312 154.134 199.19 153.95 199.028C153.765 198.865 153.618 198.664 153.518 198.439C153.418 198.214 153.368 197.97 153.371 197.724C153.374 197.478 153.43 197.236 153.536 197.013L171.835 158.384C172.105 157.815 172.561 157.355 173.128 157.081C173.695 156.807 174.338 156.735 174.952 156.877L177.088 157.372C177.036 157.716 177.116 158.067 177.311 158.355C177.506 158.643 177.803 158.847 178.142 158.925Z" fill="#F5F5F5"/>
<path d="M132.337 370.314L143.769 370.313L149.206 326.217L132.333 326.218L132.337 370.314Z" fill="#FFB8B8"/>
<path d="M165.818 380.926L129.888 380.93L129.887 367.048L151.934 367.046C153.757 367.045 155.563 367.404 157.247 368.102C158.931 368.799 160.462 369.822 161.751 371.111C163.04 372.4 164.063 373.93 164.76 375.614C165.458 377.298 165.817 379.103 165.818 380.926L165.818 380.926Z" fill="#2F2E41"/>
<path d="M70.7149 370.314L82.1479 370.313L87.5839 326.217L70.7109 326.218L70.7149 370.314Z" fill="#FFB8B8"/>
<path d="M104.196 380.926L68.2667 380.93L68.2654 367.048L90.3132 367.046C93.9949 367.045 97.526 368.508 100.13 371.111C102.733 373.714 104.196 377.245 104.196 380.926L104.196 380.926Z" fill="#2F2E41"/>
<path d="M104.196 56.8385C117.761 56.8385 128.757 45.8421 128.757 32.2775C128.757 18.7128 117.761 7.71643 104.196 7.71643C90.6317 7.71643 79.6354 18.7128 79.6354 32.2775C79.6354 45.8421 90.6317 56.8385 104.196 56.8385Z" fill="#FFB8B8"/>
<path d="M188.179 192.456C188.007 191.095 187.54 189.79 186.809 188.63C186.078 187.47 185.102 186.485 183.949 185.743C182.796 185.001 181.495 184.521 180.136 184.337C178.778 184.153 177.395 184.269 176.087 184.676L162.36 168.222L150.327 174.124L170.037 197.089C170.868 199.242 172.46 201.016 174.511 202.074C176.562 203.132 178.93 203.401 181.166 202.83C183.402 202.259 185.351 200.888 186.644 198.975C187.936 197.063 188.483 194.743 188.179 192.456Z" fill="#FFB8B8"/>
<path d="M70.0451 209.097C70.6301 207.857 70.9361 206.504 70.9415 205.134C70.947 203.763 70.6518 202.407 70.0768 201.163C69.5018 199.919 68.6609 198.815 67.6134 197.931C66.5659 197.047 65.3373 196.403 64.014 196.045L61.2583 174.795L47.9363 173.32L52.2495 203.274C51.7952 205.537 52.1868 207.888 53.3501 209.881C54.5134 211.875 56.3674 213.372 58.561 214.09C60.7545 214.808 63.1352 214.696 65.2518 213.776C67.3684 212.856 69.0739 211.191 70.0452 209.097L70.0451 209.097Z" fill="#FFB8B8"/>
<path d="M51.4015 196.103C50.3227 196.103 49.2798 195.715 48.4629 195.011C47.646 194.306 47.1094 193.331 46.9509 192.264L40.3935 148.105C39.5695 142.547 40.236 136.869 42.3248 131.653L62.4561 81.4126C63.2794 79.3578 64.6302 77.5565 66.3721 76.1906C68.114 74.8246 70.1854 73.9424 72.3773 73.6328C74.5691 73.3233 76.8038 73.5974 78.8559 74.4275C80.908 75.2576 82.7047 76.6144 84.0649 78.3608H84.065C85.4705 80.1612 86.3585 82.3107 86.6333 84.5781C86.9081 86.8455 86.5595 89.1449 85.6248 91.229L76.1343 112.457C65.491 136.272 61.475 162.518 64.5107 188.426C64.6335 189.472 64.3857 190.527 63.8104 191.409C63.2351 192.291 62.3688 192.943 61.3623 193.252L52.7233 195.905C52.295 196.037 51.8495 196.103 51.4015 196.103Z" fill="#8680EF"/>
<path d="M98.2163 56.8375C94.5198 56.9174 90.8482 56.2141 87.4429 54.7739C84.0375 53.3336 80.9754 51.1891 78.458 48.4812C75.9405 45.7732 74.0245 42.5632 72.836 39.062C71.6475 35.5609 71.2134 31.8478 71.5621 28.1669C71.9109 24.486 73.0346 20.9206 74.8595 17.7049C76.6844 14.4893 79.1691 11.6961 82.1503 9.50918C85.1316 7.32222 88.5419 5.79089 92.1571 5.01583C95.7724 4.24077 99.5107 4.23954 103.126 5.0122C108.528 1.73268 114.807 -0.474059 121.101 0.0872111C127.395 0.648481 133.62 4.3851 135.973 10.2493C138.327 16.1135 135.798 23.8434 129.946 26.2266C126.194 27.7544 121.957 27.0135 117.954 26.3974C113.95 25.7813 109.582 25.3792 106.097 27.4451C102.613 29.511 101.046 35.0506 104.167 37.6335C105.821 39.0569 107.003 40.9506 107.554 43.0623C108.105 45.1741 107.999 47.4035 107.251 49.4538C105.683 53.51 101.402 56.7687 98.2163 56.8375Z" fill="#2F2E41"/>
<path d="M67.3873 361.43C66.7862 361.43 66.1911 361.31 65.6372 361.076C65.0833 360.843 64.5818 360.501 64.1623 360.07C63.7428 359.64 63.4138 359.129 63.1947 358.57C62.9756 358.01 62.8709 357.412 62.8867 356.811L67.256 190.995L67.7324 190.984L139.959 189.41L152.429 350.646C152.497 351.627 152.243 352.604 151.705 353.427C151.167 354.251 150.375 354.876 149.448 355.208L149.311 355.236L135.136 356.102C134.538 356.304 133.904 356.378 133.276 356.319C132.648 356.26 132.039 356.069 131.489 355.76C130.939 355.45 130.461 355.028 130.085 354.522C129.708 354.015 129.443 353.435 129.305 352.819L106.198 249.423C106.122 249.082 105.929 248.779 105.653 248.565C105.378 248.351 105.036 248.24 104.687 248.251C104.338 248.262 104.004 248.394 103.742 248.625C103.481 248.855 103.307 249.17 103.253 249.515L86.1814 356.904C86.0157 357.921 85.5075 358.851 84.7409 359.54C83.9744 360.229 82.9956 360.635 81.9666 360.691L67.6144 361.424C67.5386 361.428 67.4629 361.43 67.3873 361.43Z" fill="#2F2E41"/>
<path d="M88.6438 204.72C79.6559 204.72 71.8069 203.362 67.4728 199.487C64.6875 196.998 63.483 193.612 63.8927 189.424C65.433 173.681 62.764 139.176 60.2537 113.001C59.6788 106.863 60.3305 100.671 62.1709 94.787C64.0113 88.9027 67.0036 83.4431 70.9737 78.7261C74.7938 74.1562 79.4966 70.4041 84.8006 67.6941C90.1046 64.9842 95.9008 63.3722 101.842 62.9546C110.111 62.3658 129.473 60.9927 135.492 76.4077C144.533 99.564 140.111 110.183 135.835 120.453C132.202 129.177 128.445 138.199 133.05 155.141C135.594 164.51 138.675 173.724 142.277 182.739C144.771 189.133 146.022 192.343 144.867 194.439C143.955 196.093 141.681 196.813 137.804 197.563C136.537 197.809 134.864 198.165 132.871 198.588C122.738 200.742 104.024 204.72 88.6438 204.72Z" fill="#8680EF"/>
<path d="M162.435 190.207C162.401 190.207 162.366 190.207 162.332 190.206C161.684 190.191 161.047 190.037 160.464 189.753C159.881 189.47 159.367 189.063 158.956 188.562L133.497 157.538C128.061 150.91 124.481 142.958 123.124 134.493L115.285 85.502C115.021 83.8497 115.089 82.1613 115.485 80.5356C115.881 78.9098 116.597 77.3794 117.592 76.0338C118.587 74.6883 119.84 73.5546 121.278 72.6992C122.716 71.8437 124.31 71.2837 125.967 71.0518C127.624 70.82 129.311 70.9209 130.929 71.3488C132.546 71.7767 134.062 72.5229 135.388 73.5438C136.714 74.5646 137.823 75.8397 138.65 77.2943C139.477 78.7489 140.006 80.3538 140.205 82.0152L143.321 108C146.203 132.003 155.512 154.782 170.266 173.934L172.047 176.245C172.689 177.078 173.02 178.111 172.979 179.163C172.939 180.216 172.531 181.22 171.826 182.002L165.779 188.718C165.357 189.187 164.841 189.562 164.265 189.818C163.689 190.075 163.066 190.207 162.435 190.207Z" fill="#8680EF"/>
<path d="M232 382.826H1C0.734784 382.826 0.480414 382.721 0.292877 382.533C0.105341 382.346 0 382.091 0 381.826C0 381.561 0.105341 381.307 0.292877 381.119C0.480414 380.932 0.734784 380.826 1 380.826H232C232.265 380.826 232.52 380.932 232.707 381.119C232.895 381.307 233 381.561 233 381.826C233 382.091 232.895 382.346 232.707 382.533C232.52 382.721 232.265 382.826 232 382.826Z" fill="#CCCCCC"/>
</svg>
