<svg width="63" height="128" viewBox="0 0 63 128" fill="none" xmlns="http://www.w3.org/2000/svg">
<path d="M62.0802 29.2911H61.4062V10.738C61.4062 9.32788 61.1298 7.93155 60.5928 6.62876C60.0558 5.32596 59.2688 4.14221 58.2765 3.1451C57.2843 2.14798 56.1063 1.35702 54.8099 0.817385C53.5134 0.277749 52.1239 1.15136e-06 50.7207 0H11.6055C10.2023 -2.99344e-06 8.81274 0.277741 7.51631 0.817373C6.21988 1.35701 5.04191 2.14796 4.04966 3.14507C3.05741 4.14219 2.27032 5.32593 1.73332 6.62873C1.19632 7.93152 0.919924 9.32785 0.919922 10.738V112.522C0.91992 115.369 2.04571 118.101 4.04964 120.114C6.05357 122.128 8.77148 123.26 11.6055 123.26H50.7206C53.5546 123.26 56.2725 122.128 58.2765 120.114C60.2804 118.101 61.4062 115.369 61.4062 112.522V42.4975H62.0802V29.2911Z" fill="#3F3D56"/>
<path d="M51.1518 2.79371H46.046C46.2808 3.37219 46.3704 3.99983 46.307 4.62133C46.2435 5.24283 46.029 5.83911 45.6822 6.35765C45.3354 6.87619 44.8671 7.30107 44.3184 7.59486C43.7697 7.88865 43.1576 8.04234 42.5358 8.04239H20.1273C19.5056 8.04235 18.8934 7.88866 18.3447 7.59486C17.796 7.30107 17.3277 6.87619 16.9809 6.35765C16.6341 5.83911 16.4196 5.24283 16.3561 4.62133C16.2927 3.99983 16.3823 3.37219 16.6171 2.7937H11.8483C9.73188 2.7937 7.70217 3.63856 6.20566 5.14241C4.70915 6.64627 3.86841 8.68594 3.86841 10.8127V112.447C3.86841 113.5 4.07481 114.543 4.47583 115.516C4.87686 116.489 5.46465 117.373 6.20565 118.117C6.94665 118.862 7.82634 119.453 8.7945 119.856C9.76266 120.259 10.8003 120.466 11.8483 120.466H51.1518C52.1997 120.466 53.2374 120.259 54.2056 119.856C55.1737 119.453 56.0534 118.862 56.7944 118.117C57.5354 117.373 58.1232 116.489 58.5242 115.516C58.9253 114.543 59.1317 113.5 59.1317 112.447V10.8127C59.1317 9.75965 58.9253 8.71689 58.5242 7.74397C58.1232 6.77106 57.5354 5.88705 56.7944 5.14242C56.0534 4.39778 55.1737 3.80711 54.2056 3.40411C53.2374 3.00112 52.1997 2.7937 51.1518 2.79371Z" fill="white"/>
<path d="M50.1672 118.721H12.8328C8.54296 118.721 5.05293 115.591 5.05293 111.743V106.691C5.05293 103.624 7.83235 101.129 11.2487 101.129H51.7514C55.1677 101.129 57.9471 103.624 57.9471 106.691V111.743C57.9471 115.591 54.4571 118.721 50.1672 118.721Z" fill="#E5E5E5"/>
<path d="M16.7574 33.8144H8.42948C8.2803 33.8142 8.13727 33.7546 8.03178 33.6486C7.9263 33.5426 7.86695 33.3989 7.86678 33.2489V24.8802C7.86695 24.7302 7.9263 24.5865 8.03178 24.4805C8.13727 24.3745 8.2803 24.3149 8.42948 24.3147H16.7574C16.9066 24.3149 17.0496 24.3745 17.1551 24.4805C17.2606 24.5865 17.3199 24.7302 17.3201 24.8802V33.2489C17.3199 33.3989 17.2606 33.5426 17.1551 33.6486C17.0496 33.7546 16.9066 33.8142 16.7574 33.8144Z" fill="#6C63FF"/>
<path d="M29.3618 33.8144H21.0339C20.8847 33.8142 20.7417 33.7546 20.6362 33.6486C20.5307 33.5426 20.4714 33.3989 20.4712 33.2489V24.8802C20.4714 24.7302 20.5307 24.5865 20.6362 24.4805C20.7417 24.3745 20.8847 24.3149 21.0339 24.3147H29.3618C29.511 24.3149 29.654 24.3745 29.7595 24.4805C29.865 24.5865 29.9243 24.7302 29.9245 24.8802V33.2489C29.9243 33.3989 29.865 33.5426 29.7595 33.6486C29.654 33.7546 29.511 33.8142 29.3618 33.8144Z" fill="#E5E5E5"/>
<path d="M41.9662 33.8144H33.6383C33.4891 33.8142 33.3461 33.7546 33.2406 33.6486C33.1351 33.5426 33.0758 33.3989 33.0756 33.2489V24.8802C33.0758 24.7302 33.1351 24.5865 33.2406 24.4805C33.3461 24.3745 33.4891 24.3149 33.6383 24.3147H41.9662C42.1154 24.3149 42.2584 24.3745 42.3639 24.4805C42.4694 24.5865 42.5287 24.7302 42.5289 24.8802V33.2489C42.5287 33.3989 42.4694 33.5426 42.3639 33.6486C42.2584 33.7546 42.1154 33.8142 41.9662 33.8144Z" fill="#E5E5E5"/>
<path d="M54.5706 33.8144H46.2427C46.0935 33.8142 45.9505 33.7546 45.845 33.6486C45.7395 33.5426 45.6802 33.3989 45.68 33.2489V24.8802C45.6802 24.7302 45.7395 24.5865 45.845 24.4805C45.9505 24.3745 46.0935 24.3149 46.2427 24.3147H54.5706C54.7198 24.3149 54.8628 24.3745 54.9683 24.4805C55.0738 24.5865 55.1331 24.7302 55.1333 24.8802V33.2489C55.1331 33.3989 55.0738 33.5426 54.9683 33.6486C54.8628 33.7546 54.7198 33.8142 54.5706 33.8144Z" fill="#E5E5E5"/>
<path d="M16.7276 49.3079H8.3997C8.25052 49.3077 8.1075 49.2481 8.00201 49.1421C7.89652 49.0361 7.83718 48.8924 7.83701 48.7425V40.3737C7.83718 40.2238 7.89652 40.08 8.00201 39.974C8.1075 39.868 8.25052 39.8084 8.3997 39.8082H16.7276C16.8768 39.8084 17.0198 39.868 17.1253 39.974C17.2308 40.08 17.2901 40.2238 17.2903 40.3737V48.7425C17.2901 48.8924 17.2308 49.0361 17.1253 49.1421C17.0198 49.2481 16.8768 49.3077 16.7276 49.3079Z" fill="#E5E5E5"/>
<path d="M29.332 49.3079H21.0041C20.8549 49.3077 20.7119 49.2481 20.6064 49.1421C20.5009 49.0361 20.4416 48.8924 20.4414 48.7425V40.3737C20.4416 40.2238 20.5009 40.08 20.6064 39.974C20.7119 39.868 20.8549 39.8084 21.0041 39.8082H29.332C29.4812 39.8084 29.6242 39.868 29.7297 39.974C29.8352 40.08 29.8945 40.2238 29.8947 40.3737V48.7425C29.8945 48.8924 29.8352 49.0361 29.7297 49.1421C29.6242 49.2481 29.4812 49.3077 29.332 49.3079Z" fill="#E5E5E5"/>
<path d="M41.9364 49.3079H33.6085C33.4593 49.3077 33.3163 49.2481 33.2108 49.1421C33.1053 49.0361 33.046 48.8924 33.0458 48.7425V40.3737C33.046 40.2238 33.1053 40.08 33.2108 39.974C33.3163 39.868 33.4593 39.8084 33.6085 39.8082H41.9364C42.0856 39.8084 42.2286 39.868 42.3341 39.974C42.4396 40.08 42.4989 40.2238 42.4991 40.3737V48.7425C42.4989 48.8924 42.4396 49.0361 42.3341 49.1421C42.2286 49.2481 42.0856 49.3077 41.9364 49.3079Z" fill="#6C63FF"/>
<path d="M54.5408 49.3079H46.2129C46.0637 49.3077 45.9207 49.2481 45.8152 49.1421C45.7097 49.0361 45.6504 48.8924 45.6502 48.7425V40.3737C45.6504 40.2238 45.7097 40.08 45.8152 39.974C45.9207 39.868 46.0637 39.8084 46.2129 39.8082H54.5408C54.69 39.8084 54.833 39.868 54.9385 39.974C55.044 40.08 55.1033 40.2238 55.1035 40.3737V48.7425C55.1033 48.8924 55.044 49.0361 54.9385 49.1421C54.833 49.2481 54.69 49.3077 54.5408 49.3079Z" fill="#6C63FF"/>
<path d="M16.6978 64.8015H8.36991C8.22072 64.8013 8.07771 64.7417 7.97222 64.6356C7.86673 64.5296 7.80739 64.3859 7.80721 64.236V55.8672C7.80739 55.7173 7.86673 55.5736 7.97222 55.4676C8.07771 55.3616 8.22073 55.3019 8.36991 55.3018H16.6978C16.847 55.3019 16.99 55.3616 17.0955 55.4676C17.201 55.5736 17.2603 55.7173 17.2605 55.8672V64.236C17.2603 64.3859 17.201 64.5296 17.0955 64.6356C16.99 64.7417 16.847 64.8013 16.6978 64.8015Z" fill="#E5E5E5"/>
<path d="M29.3022 64.8015H20.9743C20.8251 64.8013 20.6821 64.7417 20.5766 64.6356C20.4711 64.5296 20.4118 64.3859 20.4116 64.236V55.8672C20.4118 55.7173 20.4711 55.5736 20.5766 55.4676C20.6821 55.3616 20.8251 55.3019 20.9743 55.3018H29.3022C29.4514 55.3019 29.5944 55.3616 29.6999 55.4676C29.8054 55.5736 29.8647 55.7173 29.8649 55.8672V64.236C29.8647 64.3859 29.8054 64.5296 29.6999 64.6356C29.5944 64.7417 29.4514 64.8013 29.3022 64.8015Z" fill="#E5E5E5"/>
<path d="M41.9066 64.8015H33.5787C33.4295 64.8013 33.2865 64.7417 33.181 64.6356C33.0755 64.5296 33.0162 64.3859 33.016 64.236V55.8672C33.0162 55.7173 33.0755 55.5736 33.181 55.4676C33.2865 55.3616 33.4295 55.3019 33.5787 55.3018H41.9066C42.0558 55.3019 42.1988 55.3616 42.3043 55.4676C42.4098 55.5736 42.4691 55.7173 42.4693 55.8672V64.236C42.4691 64.3859 42.4098 64.5296 42.3043 64.6356C42.1988 64.7417 42.0558 64.8013 41.9066 64.8015Z" fill="#E5E5E5"/>
<path d="M54.511 64.8015H46.1831C46.0339 64.8013 45.8909 64.7417 45.7854 64.6356C45.6799 64.5296 45.6206 64.3859 45.6204 64.236V55.8672C45.6206 55.7173 45.6799 55.5736 45.7854 55.4676C45.8909 55.3616 46.0339 55.3019 46.1831 55.3018H54.511C54.6602 55.3019 54.8032 55.3616 54.9087 55.4676C55.0142 55.5736 55.0735 55.7173 55.0737 55.8672V64.236C55.0735 64.3859 55.0142 64.5296 54.9087 64.6356C54.8032 64.7417 54.6602 64.8013 54.511 64.8015Z" fill="#E5E5E5"/>
<path d="M16.668 80.295H8.34012C8.19094 80.2948 8.04792 80.2352 7.94243 80.1291C7.83694 80.0231 7.7776 79.8794 7.77743 79.7295V71.3607C7.7776 71.2108 7.83694 71.0671 7.94243 70.9611C8.04792 70.8551 8.19094 70.7955 8.34012 70.7953H16.668C16.8172 70.7955 16.9602 70.8551 17.0657 70.9611C17.1712 71.0671 17.2306 71.2108 17.2307 71.3607V79.7295C17.2306 79.8794 17.1712 80.0231 17.0657 80.1291C16.9602 80.2352 16.8172 80.2948 16.668 80.295Z" fill="#E5E5E5"/>
<path d="M29.2724 80.295H20.9445C20.7953 80.2948 20.6523 80.2352 20.5468 80.1291C20.4413 80.0231 20.382 79.8794 20.3818 79.7295V71.3607C20.382 71.2108 20.4413 71.0671 20.5468 70.9611C20.6523 70.8551 20.7953 70.7955 20.9445 70.7953H29.2724C29.4216 70.7955 29.5646 70.8551 29.6701 70.9611C29.7756 71.0671 29.8349 71.2108 29.8351 71.3607V79.7295C29.8349 79.8794 29.7756 80.0231 29.6701 80.1291C29.5646 80.2352 29.4216 80.2948 29.2724 80.295Z" fill="#E5E5E5"/>
<path d="M41.8768 80.295H33.5489C33.3998 80.2948 33.2567 80.2352 33.1512 80.1291C33.0458 80.0231 32.9864 79.8794 32.9862 79.7295V71.3607C32.9864 71.2108 33.0458 71.0671 33.1512 70.9611C33.2567 70.8551 33.3998 70.7955 33.5489 70.7953H41.8768C42.026 70.7955 42.169 70.8551 42.2745 70.9611C42.38 71.0671 42.4394 71.2108 42.4395 71.3607V79.7295C42.4394 79.8794 42.38 80.0231 42.2745 80.1291C42.1691 80.2352 42.026 80.2948 41.8768 80.295Z" fill="#E5E5E5"/>
<path d="M54.4812 80.295H46.1533C46.0041 80.2948 45.8611 80.2352 45.7556 80.1291C45.6501 80.0231 45.5908 79.8794 45.5906 79.7295V71.3607C45.5908 71.2108 45.6501 71.0671 45.7556 70.9611C45.8611 70.8551 46.0041 70.7955 46.1533 70.7953H54.4812C54.6304 70.7955 54.7734 70.8551 54.8789 70.9611C54.9844 71.0671 55.0437 71.2108 55.0439 71.3607V79.7295C55.0437 79.8794 54.9844 80.0231 54.8789 80.1291C54.7734 80.2352 54.6304 80.2948 54.4812 80.295Z" fill="#E5E5E5"/>
<path d="M16.7574 114.901H8.42948C8.2803 114.901 8.13727 114.841 8.03178 114.735C7.9263 114.629 7.86695 114.486 7.86678 114.336V105.967C7.86695 105.817 7.9263 105.673 8.03178 105.567C8.13727 105.461 8.2803 105.402 8.42948 105.401H16.7574C16.9066 105.402 17.0496 105.461 17.1551 105.567C17.2606 105.673 17.3199 105.817 17.3201 105.967V114.336C17.3199 114.486 17.2606 114.629 17.1551 114.735C17.0496 114.841 16.9066 114.901 16.7574 114.901Z" fill="white"/>
<path d="M29.3618 114.901H21.0339C20.8847 114.901 20.7417 114.841 20.6362 114.735C20.5307 114.629 20.4714 114.486 20.4712 114.336V105.967C20.4714 105.817 20.5307 105.673 20.6362 105.567C20.7417 105.461 20.8847 105.402 21.0339 105.401H29.3618C29.511 105.402 29.654 105.461 29.7595 105.567C29.865 105.673 29.9243 105.817 29.9245 105.967V114.336C29.9243 114.486 29.865 114.629 29.7595 114.735C29.654 114.841 29.511 114.901 29.3618 114.901Z" fill="white"/>
<path d="M41.9662 114.901H33.6383C33.4891 114.901 33.3461 114.841 33.2406 114.735C33.1351 114.629 33.0758 114.486 33.0756 114.336V105.967C33.0758 105.817 33.1351 105.673 33.2406 105.567C33.3461 105.461 33.4891 105.402 33.6383 105.401H41.9662C42.1154 105.402 42.2584 105.461 42.3639 105.567C42.4694 105.673 42.5287 105.817 42.5289 105.967V114.336C42.5287 114.486 42.4694 114.629 42.3639 114.735C42.2584 114.841 42.1154 114.901 41.9662 114.901Z" fill="white"/>
<path d="M54.5706 114.901H46.2427C46.0935 114.901 45.9505 114.841 45.845 114.735C45.7395 114.629 45.6802 114.486 45.68 114.336V105.967C45.6802 105.817 45.7395 105.673 45.845 105.567C45.9505 105.461 46.0935 105.402 46.2427 105.401H54.5706C54.7198 105.402 54.8628 105.461 54.9683 105.567C55.0738 105.673 55.1331 105.817 55.1333 105.967V114.336C55.1331 114.486 55.0738 114.629 54.9683 114.735C54.8628 114.841 54.7198 114.901 54.5706 114.901Z" fill="white"/>
<path d="M27.4188 97.2588C28.0404 97.2588 28.5442 96.7525 28.5442 96.1279C28.5442 95.5033 28.0404 94.9969 27.4188 94.9969C26.7973 94.9969 26.2934 95.5033 26.2934 96.1279C26.2934 96.7525 26.7973 97.2588 27.4188 97.2588Z" fill="#E5E5E5"/>
<path d="M31.4702 97.2588C32.0918 97.2588 32.5956 96.7525 32.5956 96.1279C32.5956 95.5033 32.0918 94.9969 31.4702 94.9969C30.8487 94.9969 30.3448 95.5033 30.3448 96.1279C30.3448 96.7525 30.8487 97.2588 31.4702 97.2588Z" fill="#E5E5E5"/>
<path d="M35.5217 97.2588C36.1432 97.2588 36.6471 96.7525 36.6471 96.1279C36.6471 95.5033 36.1432 94.9969 35.5217 94.9969C34.9001 94.9969 34.3963 95.5033 34.3963 96.1279C34.3963 96.7525 34.9001 97.2588 35.5217 97.2588Z" fill="#E5E5E5"/>
<path d="M15.9468 88.9177C16.1823 88.6812 16.3632 88.3958 16.477 88.0814C16.5907 87.767 16.6345 87.4314 16.6052 87.0982C16.576 86.765 16.4744 86.4423 16.3075 86.1528C16.1407 85.8633 15.9128 85.6141 15.6398 85.4228L17.8376 77.5973L13.8306 78.8779L12.3578 86.1128C12.0683 86.595 11.9649 87.1672 12.0671 87.7209C12.1693 88.2746 12.4702 88.7714 12.9125 89.1172C13.3549 89.4629 13.9082 89.6336 14.4674 89.5968C15.0266 89.5601 15.553 89.3184 15.9468 88.9177Z" fill="#FFB7B7"/>
<path d="M17.0862 84.1212C17.0146 84.1349 16.9418 84.1411 16.8689 84.1396L13.025 84.0622C12.8803 84.0593 12.738 84.0255 12.6073 83.963C12.4767 83.9004 12.3608 83.8107 12.2674 83.6997C12.174 83.5886 12.1051 83.4589 12.0655 83.319C12.0259 83.1792 12.0163 83.0325 12.0375 82.8887L15.9369 56.4132C16.0533 55.6474 16.4384 54.9487 17.0226 54.4433C17.6069 53.9379 18.3517 53.6591 19.1226 53.6573C19.6093 53.6586 20.0894 53.7709 20.5267 53.9859C20.9639 54.2009 21.3468 54.5129 21.6464 54.8984C21.9461 55.2839 22.1546 55.7327 22.2564 56.2111C22.3581 56.6894 22.3504 57.1847 22.2337 57.6596L19.4697 68.9092L17.9023 83.228C17.8795 83.4451 17.7879 83.6491 17.641 83.81C17.494 83.9708 17.2995 84.0799 17.0862 84.1212Z" fill="#3F3D56"/>
<path d="M18.6935 125.916H20.8327L21.8505 117.625L18.6931 117.625L18.6935 125.916Z" fill="#FFB7B7"/>
<path d="M18.1478 125.214L22.3607 125.214H22.3609C23.0729 125.214 23.7557 125.499 24.2592 126.004C24.7627 126.51 25.0456 127.197 25.0456 127.912V128L18.148 128L18.1478 125.214Z" fill="#2F2E41"/>
<path d="M27.8152 125.218L29.941 125.458L31.872 117.332L28.7344 116.978L27.8152 125.218Z" fill="#FFB7B7"/>
<path d="M27.3507 124.459L31.5373 124.931L31.5375 124.931C32.2451 125.011 32.8922 125.37 33.3364 125.929C33.7806 126.488 33.9856 127.202 33.9063 127.913L33.8966 128L27.0419 127.228L27.3507 124.459Z" fill="#2F2E41"/>
<path d="M16.6857 79.7741C16.6857 79.7741 13.7529 86.2985 16.3428 90.5362L17.8858 123.531H21.4284L24.8653 96.8781L30.9724 104.769L27.2517 123.185L31.5845 123.429L37.603 104.769C37.603 104.769 32.9794 84.1921 31.4524 83.6967L30.4489 78.9929L16.6857 79.7741Z" fill="#2F2E41"/>
<path d="M15.3804 85.5021C15.3804 85.5021 12.7384 88.5492 19.7179 89.6013C26.6974 90.6534 34.026 89.0753 34.2004 86.9711C34.3749 84.867 15.3804 85.5021 15.3804 85.5021Z" fill="#CBCBCB"/>
<path d="M50.3683 47.7032C50.3575 48.0007 50.2819 48.2921 50.1469 48.557C50.0119 48.822 49.8207 49.0539 49.5868 49.2365C49.3529 49.4192 49.0821 49.5481 48.7933 49.6141C48.5044 49.6802 48.2047 49.6818 47.9152 49.6188L45.277 53.4421L42.5739 52.3977L46.3751 47.051C46.5125 46.5693 46.821 46.155 47.2422 45.8866C47.6633 45.6182 48.1677 45.5144 48.66 45.5948C49.1522 45.6751 49.598 45.9342 49.9128 46.3228C50.2277 46.7114 50.3898 47.2026 50.3683 47.7032Z" fill="#FFB7B7"/>
<path d="M28.0563 52.6222L24.3261 50.9264L19.547 51.2697C19.547 51.2697 13.7853 58.0391 16.0536 64.5269L14.6577 87.1464C23.5566 89.6012 27.6018 84.9971 34.026 86.9711L32.0417 61.832L28.0563 52.6222Z" fill="#3F3D56"/>
<path d="M25.5633 54.2693L28.0562 52.6222C28.0562 52.6222 31.5192 52.0962 32.9035 53.4458C32.9035 53.4458 37.6018 53.841 38.7366 55.0195L39.986 55.3026L44.1365 49.9016L46.6764 51.2885L43.0121 61.2831L32.0417 61.8321L25.5633 54.2693Z" fill="#3F3D56"/>
<path d="M26.4235 49.0241C29.2769 47.4567 30.3255 43.8615 28.7657 40.9941C27.2059 38.1267 23.6283 37.0729 20.7749 38.6404C17.9215 40.2078 16.8729 43.803 18.4327 46.6704C19.9925 49.5378 23.5701 50.5916 26.4235 49.0241Z" fill="#FFB7B7"/>
<path d="M18.5064 39.2063C19.5574 37.3066 20.8708 36.0766 23.0332 36.121C25.1956 36.1654 27.0661 36.0795 28.039 38.0207C28.2962 37.5369 28.425 36.9946 28.413 36.4462C28.7067 36.6379 28.9383 36.9118 29.079 37.2341C29.2198 37.5564 29.2636 37.9131 29.205 38.2601C29.3943 38.1488 29.5527 37.9914 29.6657 37.8025C29.7787 37.6137 29.8428 37.3993 29.852 37.1791C30.5737 37.4204 30.7613 38.4425 30.3961 39.113C30.031 39.7834 29.3148 40.1711 28.6277 40.4989C27.9406 40.8266 28.2578 42.5601 27.8091 43.1773C27.4959 43.608 27.3527 44.1358 27.1417 44.6253C27.1329 44.6446 27.1178 44.6604 27.099 44.6701C26.6152 44.9412 26.3098 45.4256 26.3952 45.9756C26.4053 46.0169 26.4029 46.0602 26.3883 46.1C25.7758 47.2596 25.1147 48.4728 24.0045 49.1647C23.1137 49.7053 22.0466 49.8711 21.0349 49.626C19.9002 49.3534 18.9191 48.5973 18.2117 47.6649C17.5043 46.7324 17.0493 45.6304 16.7074 44.5094C16.404 43.515 16.1835 42.4517 16.424 41.44C16.6644 40.4284 17.4791 39.4916 18.5112 39.4134" fill="#2F2E41"/>
</svg>
