<svg width="370" height="349" viewBox="0 0 370 349" fill="none" xmlns="http://www.w3.org/2000/svg">
<path d="M268.622 198.476V294.608L284.721 320.814L285.946 322.808H349.468L350.751 198.476H268.622Z" fill="#203046"/>
<path opacity="0.1" d="M268.622 198.476V294.608L284.721 320.814L285.709 198.476H268.622Z" fill="black"/>
<path d="M115.271 195.912V292.045L99.1723 318.251L97.9471 320.244H34.4253L33.1419 195.912H115.271Z" fill="#203046"/>
<path opacity="0.1" d="M115.271 195.912V292.045L99.1723 318.251L98.1843 195.912H115.271Z" fill="black"/>
<path d="M370 193.99V199.757H24.8006V191.426L56.8822 174.763H341.768L370 193.99Z" fill="#293C56"/>
<path opacity="0.1" d="M370 193.99V199.757H24.8006V191.426L370 193.99Z" fill="black"/>
<path d="M74.2067 222.829H58.8072L52.3908 218.343H81.2645L74.2067 222.829Z" fill="#ABA7D6"/>
<path d="M74.2067 241.415H58.8072L52.3908 236.929H81.2645L74.2067 241.415Z" fill="#ABA7D6"/>
<path d="M74.2067 267.692H58.8072L52.3908 263.205H81.2645L74.2067 267.692Z" fill="#ABA7D6"/>
<path d="M74.2067 293.968H58.8072L52.3908 289.482H81.2645L74.2067 293.968Z" fill="#ABA7D6"/>
<path d="M309.686 225.393H325.086L331.502 220.907H302.628L309.686 225.393Z" fill="#ABA7D6"/>
<path d="M309.686 243.979H325.086L331.502 239.492H302.628L309.686 243.979Z" fill="#ABA7D6"/>
<path d="M309.686 270.255H325.086L331.502 265.769H302.628L309.686 270.255Z" fill="#ABA7D6"/>
<path d="M309.686 296.531H325.086L331.502 292.045H302.628L309.686 296.531Z" fill="#ABA7D6"/>
<path d="M320.173 63.595H190.533C189.889 63.5949 189.251 63.7215 188.656 63.9676C188.061 64.2137 187.521 64.5744 187.066 65.0291C186.61 65.4839 186.249 66.0238 186.003 66.618C185.756 67.2122 185.63 67.849 185.63 68.4921V155.719C185.63 156.362 185.756 156.999 186.003 157.593C186.249 158.188 186.61 158.727 187.066 159.182C187.521 159.637 188.061 159.998 188.656 160.244C189.251 160.49 189.889 160.616 190.533 160.616H239.745L237.901 172.374C237.901 172.374 227.365 177.965 234.773 178.13C242.182 178.294 277.085 178.13 277.085 178.13C277.085 178.13 283.835 178.13 273.133 172.21L271.399 160.616H320.173C320.817 160.616 321.454 160.49 322.049 160.244C322.644 159.998 323.185 159.637 323.64 159.182C324.095 158.727 324.456 158.188 324.703 157.593C324.949 156.999 325.076 156.362 325.076 155.719V68.4921C325.076 67.849 324.949 67.2122 324.703 66.618C324.456 66.0238 324.095 65.4839 323.64 65.0291C323.185 64.5744 322.644 64.2137 322.049 63.9676C321.454 63.7215 320.817 63.5949 320.173 63.595Z" fill="#2F2E41"/>
<path d="M320.384 68.7749H190.322V141.459H320.384V68.7749Z" fill="#F2F2F2"/>
<path d="M255.353 67.295C255.807 67.295 256.176 66.9268 256.176 66.4727C256.176 66.0187 255.807 65.6505 255.353 65.6505C254.898 65.6505 254.53 66.0187 254.53 66.4727C254.53 66.9268 254.898 67.295 255.353 67.295Z" fill="#F2F2F2"/>
<path d="M255.353 157.081C257.08 157.081 258.481 155.682 258.481 153.956C258.481 152.231 257.08 150.832 255.353 150.832C253.625 150.832 252.225 152.231 252.225 153.956C252.225 155.682 253.625 157.081 255.353 157.081Z" fill="#F2F2F2"/>
<path d="M250.478 187.009V188.654H161.905V187.338L162.027 187.009L164.21 181.09H248.667L250.478 187.009Z" fill="#FAF8FF" fill-opacity="0.96"/>
<path d="M284.564 185.4C284.403 186.089 283.794 186.815 282.417 187.503C277.478 189.969 267.436 186.845 267.436 186.845C267.436 186.845 259.698 185.529 259.698 182.076C259.915 181.928 260.142 181.793 260.376 181.673C262.453 180.576 269.338 177.868 281.546 181.788C282.445 182.07 283.248 182.596 283.866 183.307C284.14 183.576 284.346 183.906 284.467 184.269C284.589 184.633 284.622 185.02 284.564 185.4Z" fill="#FAF8FF" fill-opacity="0.96"/>
<path opacity="0.1" d="M284.564 185.4C278.519 187.713 273.13 187.886 267.6 184.049C265.509 182.505 262.977 181.672 260.376 181.673C262.453 180.576 269.338 177.868 281.546 181.788C282.445 182.07 283.248 182.596 283.866 183.307C284.14 183.576 284.346 183.906 284.467 184.269C284.589 184.633 284.622 185.02 284.564 185.4Z" fill="black"/>
<path d="M276.985 184.049C278.167 184.049 279.125 183.755 279.125 183.392C279.125 183.028 278.167 182.734 276.985 182.734C275.803 182.734 274.844 183.028 274.844 183.392C274.844 183.755 275.803 184.049 276.985 184.049Z" fill="#F2F2F2"/>
<path opacity="0.1" d="M250.478 187.009V188.654H161.905V187.338L162.027 187.009H250.478Z" fill="black"/>
<path d="M49.2482 1.00008C48.3493 0.926359 47.4492 1.12721 46.6671 1.57601C45.8992 2.10127 45.4152 3.02147 44.9212 3.87777C43.0323 7.19086 40.4751 10.076 37.4117 12.3505C35.1803 13.9832 32.3435 16.019 32.7252 19.0294C32.9266 20.0235 33.2943 20.9766 33.8129 21.8487C35.8713 25.9991 41.4885 29.2066 40.936 33.9426C42.9811 30.5228 40.2456 28.8318 42.2907 25.4121C43.2647 23.7835 44.9566 21.9451 46.4271 22.9679C46.9194 23.3103 47.2427 23.9245 47.7554 24.225C48.9786 24.942 50.2799 23.5713 51.3627 22.6004C55.0965 19.2525 60.4064 20.1296 65.0527 21.1727C67.2462 21.6652 69.6556 22.3113 70.9522 24.4053C72.6571 27.1585 69.3325 30.132 68.4924 33.2448C68.4239 33.51 68.4206 33.7879 68.483 34.0546C68.5454 34.3214 68.6715 34.5691 68.8506 34.7766C69.0297 34.984 69.2565 35.1451 69.5115 35.2459C69.7665 35.3468 70.0421 35.3844 70.3149 35.3557C71.709 35.2183 73.3605 35.1057 73.4431 34.4946C75.1971 34.557 77.3464 34.3586 78.0979 32.5343C78.3276 31.8124 78.449 31.0606 78.4582 30.3033C78.7341 27.2388 80.0362 24.4431 80.8988 21.5265C81.7615 18.6098 82.1366 15.1917 80.6808 12.6058C80.1613 11.7454 79.5187 10.9654 78.7735 10.2904C70.5124 2.30511 59.6508 0.988225 49.2482 1.00008Z" fill="#2F2E41"/>
<path d="M42.7327 39.9244C42.7327 39.9244 44.5293 54.8791 37.9416 56.0755C31.3538 57.2718 43.9304 77.6102 43.9304 77.6102L73.8747 81.1993L66.6881 57.2718C66.6881 57.2718 61.897 55.4773 64.8914 43.5135C67.8859 31.5498 42.7327 39.9244 42.7327 39.9244Z" fill="#FFB8B8"/>
<path d="M24.4666 296.846L26.8624 329.746H39.4385L35.8457 296.846H24.4666Z" fill="#FFB8B8"/>
<path d="M116.695 234.634L118.492 262.151L132.266 256.169L126.876 233.438L116.695 234.634Z" fill="#FFB8B8"/>
<path d="M15.4834 171.226C15.4834 171.226 16.0822 205.921 19.6756 217.287C23.2689 228.652 22.67 229.251 22.0711 231.045C21.4722 232.84 20.8733 231.643 20.8733 234.634C20.8733 237.625 19.6756 284.882 20.8733 289.069C22.0711 293.257 17.28 300.435 20.8733 301.033C24.4667 301.631 41.2355 301.033 41.8343 297.444C42.4332 293.855 37.0433 292.658 39.4388 290.266C41.8344 287.873 45.4277 238.822 45.4277 238.822L53.8121 204.725L69.3831 186.779H102.322L112.503 226.26C112.503 226.26 108.311 237.625 111.305 237.625C114.3 237.625 132.266 241.214 132.266 228.054C132.266 214.894 126.277 176.012 125.079 174.816C123.882 173.619 125.678 169.432 123.882 167.637C122.085 165.843 101.124 153.281 93.3385 150.888C85.553 148.495 74.6313 145.648 74.6313 145.648L15.4834 171.226Z" fill="#2F2E41"/>
<path d="M132.266 251.384C132.266 251.384 123.283 248.393 119.091 257.365C114.898 266.338 116.695 268.731 116.695 268.731C116.695 268.731 130.469 273.516 132.865 271.124C133.907 270.083 137.217 269.721 140.623 269.645C145.812 269.528 147.192 262.196 142.292 260.489C142.146 260.438 141.998 260.394 141.848 260.356C137.057 259.16 132.266 251.384 132.266 251.384Z" fill="#2F2E41"/>
<path d="M56.2076 49.7945C66.1303 49.7945 74.1742 41.76 74.1742 31.8489C74.1742 21.9378 66.1303 13.9033 56.2076 13.9033C46.2849 13.9033 38.241 21.9378 38.241 31.8489C38.241 41.76 46.2849 49.7945 56.2076 49.7945Z" fill="#FFB8B8"/>
<path d="M32.851 63.5528C32.851 63.5528 62.1964 69.5347 69.3831 59.9637C76.5697 50.3927 79.5641 86.8821 79.5641 86.8821L83.1575 125.166L77.7675 146.103C77.7675 146.103 49.6198 168.834 40.6366 170.628C31.6533 172.423 17.8789 173.619 17.8789 173.619C17.8789 173.619 22.0711 107.22 22.0711 106.024C22.0711 104.828 32.851 63.5528 32.851 63.5528Z" fill="#6C63FF"/>
<path d="M41.7757 52.334C41.7757 52.334 35.2466 48.5981 33.4499 52.1873C31.6533 55.7764 14.8845 64.7492 13.0878 64.7492C11.2911 64.7492 16.6811 114.399 14.2856 120.381C11.89 126.362 0.511192 170.03 7.09894 173.619C13.6867 177.208 8.89559 170.03 15.4833 179.003C22.0711 187.976 54.4109 187.976 56.2076 184.387C58.0042 180.797 41.8343 153.879 44.8288 128.755C47.8232 103.631 52.6143 68.9365 48.4221 64.151C44.2299 59.3655 41.7757 52.334 41.7757 52.334Z" fill="#2F2E41"/>
<path d="M63.3942 56.3746L64.2284 53.5071C64.2284 53.5071 89.1463 61.7582 90.3441 67.1419C91.5419 72.5256 90.943 110.211 86.7508 113.202C82.5586 116.193 76.5697 120.979 80.7619 128.157C84.9541 135.335 89.7452 143.112 93.3385 143.71C96.9319 144.308 103.52 148.495 101.723 152.683C99.9263 156.87 78.3664 149.094 78.3664 149.094C78.3664 149.094 63.9931 138.326 64.592 121.577C65.1909 104.828 63.3942 56.3746 63.3942 56.3746Z" fill="#2F2E41"/>
<path d="M84.3552 126.961L69.9819 153.879C69.9819 153.879 49.021 175.414 60.9987 177.806C72.9764 180.199 79.5641 158.066 79.5641 158.066L95.1352 135.933L84.3552 126.961Z" fill="#FFB8B8"/>
<path d="M50.1235 5.6955C49.3993 5.6419 48.6739 5.78243 48.0223 6.10256C47.4332 6.53235 46.9476 7.08818 46.6011 7.72944C45.0037 10.1295 42.9214 12.1693 40.488 13.7179C38.6716 14.8719 36.3623 16.3108 36.6731 18.4385C36.8418 19.1518 37.142 19.8276 37.5584 20.4312C39.2399 23.3943 39.9093 26.8239 39.4653 30.2009L44.4598 22.9497C45.2526 21.7987 46.6299 20.4993 47.8269 21.2222C48.2277 21.4642 48.4909 21.8984 48.9082 22.1107C49.904 22.6175 50.9633 21.6487 51.8448 20.9625C54.8843 18.5962 59.2067 19.2161 62.989 19.9534C64.7746 20.3015 66.7359 20.7581 67.7915 22.2382C69.5456 24.6977 67.714 28.2516 68.7377 31.093C69.0243 30.8926 69.2677 30.6367 69.4534 30.3406C69.6392 30.0445 69.7635 29.7142 69.8191 29.3692C71.247 29.4133 72.9966 29.2731 73.6084 27.9836C73.7944 27.4783 73.8936 26.9452 73.9016 26.4068C74.1262 24.2409 75.1862 22.2649 75.8884 20.2034C76.5906 18.1419 76.896 15.726 75.7109 13.8983C75.2774 13.279 74.7542 12.7275 74.1583 12.2618C67.4334 6.61788 58.5916 5.68712 50.1235 5.6955Z" fill="#2F2E41"/>
<path d="M84.3552 64.7492L89.9351 66.2285C89.9351 66.2285 102.921 99.444 99.9263 122.175C96.9318 144.906 95.1352 140.121 95.1352 140.121C95.1352 140.121 90.3441 129.353 79.5641 131.746L84.3552 64.7492Z" fill="#2F2E41"/>
<path d="M25.2964 325.398C23.8522 327.358 24.1417 330.16 22.8625 332.232C21.7536 334.027 19.6637 334.969 18.2767 336.56C17.8341 337.088 17.4396 337.655 17.0977 338.254C15.8111 340.406 14.7653 343.165 16.0325 345.329C17.0518 347.07 19.1945 347.751 21.1596 348.214C23.6433 348.801 26.2239 349.27 28.7363 348.822C31.2488 348.374 33.7042 346.837 34.6 344.45C34.7761 343.85 34.9854 343.26 35.2269 342.683C36.5887 340.005 40.86 339.976 42.2537 337.315C43.229 335.453 42.3324 333.202 41.4363 331.3L38.6991 325.492C37.7908 323.564 34.1086 324.673 32.189 324.211C29.6854 323.608 27.0974 322.945 25.2964 325.398Z" fill="#2F2E41"/>
<path d="M5.30228 138.924L30.4555 177.806C30.4555 177.806 46.0265 197.547 50.8176 188.574C55.6087 179.601 34.0488 164.646 34.0488 164.646L17.8789 134.737L5.30228 138.924Z" fill="#FFB8B8"/>
<path d="M17.8789 65.9455L13.0878 64.7492C13.0878 64.7492 3.50562 67.7401 1.11008 80.302C-1.28546 92.8639 0.511195 143.112 3.50562 143.71C6.50005 144.308 18.2951 134.961 20.1831 136.943C22.0711 138.924 16.0822 128.755 17.8789 123.371C19.6755 117.988 17.8789 65.9455 17.8789 65.9455Z" fill="#2F2E41"/>
<path d="M243.043 92.6467H227.564V96.3688H243.043V92.6467Z" fill="#6C63FF"/>
<path d="M296.645 92.6467H291.199V96.3688H296.645V92.6467Z" fill="#6C63FF"/>
<path d="M307.538 92.6467H302.092V96.3688H307.538V92.6467Z" fill="#6C63FF"/>
<path d="M285.466 92.6467H248.489V96.3688H285.466V92.6467Z" fill="#6C63FF"/>
<path d="M223.551 116.697H208.072V120.419H223.551V116.697Z" fill="#6C63FF"/>
<path d="M277.153 116.697H271.707V120.419H277.153V116.697Z" fill="#6C63FF"/>
<path d="M288.046 116.697H282.6V120.419H288.046V116.697Z" fill="#6C63FF"/>
<path d="M265.974 116.697H228.997V120.419H265.974V116.697Z" fill="#6C63FF"/>
<path d="M287.473 100.95H271.994V104.672H287.473V100.95Z" fill="#6C63FF"/>
<path d="M308.398 100.95H292.919V104.672H308.398V100.95Z" fill="#6C63FF"/>
<path d="M213.518 100.95H208.072V104.672H213.518V100.95Z" fill="#6C63FF"/>
<path d="M224.411 100.95H218.964V104.672H224.411V100.95Z" fill="#6C63FF"/>
<path d="M266.834 100.95H229.857V104.672H266.834V100.95Z" fill="#6C63FF"/>
<path d="M255.368 108.966H239.889V112.688H255.368V108.966Z" fill="#6C63FF"/>
<path d="M234.443 108.966H218.964V112.688H234.443V108.966Z" fill="#6C63FF"/>
<path d="M213.518 108.966H208.072V112.688H213.518V108.966Z" fill="#6C63FF"/>
<path d="M308.398 108.966H302.951V112.688H308.398V108.966Z" fill="#6C63FF"/>
<path d="M297.505 108.966H260.528V112.688H297.505V108.966Z" fill="#6C63FF"/>
</svg>
