<svg width="83" height="25" viewBox="0 0 83 25" fill="none" xmlns="http://www.w3.org/2000/svg">
<path d="M0 12.4551C0 14.555 1.99112 16.5153 5.13014 17.6203C4.50329 20.8702 5.01786 23.4898 6.73636 24.5104C8.50272 25.5596 11.1343 24.8334 13.632 22.5848C16.0667 24.7425 18.5273 25.5917 20.2443 24.5681C22.0091 23.516 22.5457 20.7189 21.9016 17.3675C25.1711 16.2542 27 14.5827 27 12.4551C27 10.4038 25.0053 8.62932 21.9085 7.53141C22.602 4.04152 22.0144 1.4856 20.2247 0.422774C18.4993 -0.601911 16.01 0.291191 13.5396 2.50537C10.9694 0.155236 8.50474 -0.56224 6.71694 0.503537C4.99314 1.53117 4.50127 4.19835 5.13014 7.50836C2.09703 8.59741 0 10.4121 0 12.4551Z" fill="white"/>
<path d="M21.2527 8.6215C20.9975 8.53134 20.7401 8.44782 20.4808 8.37101C20.5238 8.19106 20.5635 8.0103 20.6001 7.82884C21.1843 4.90779 20.8023 2.55461 19.4977 1.77998C18.2469 1.03704 16.2011 1.81167 14.1349 3.66334C13.9313 3.84621 13.7323 4.03436 13.5379 4.22759C13.4077 4.0991 13.2753 3.97311 13.1406 3.84967C10.9752 1.8696 8.80477 1.0353 7.50151 1.81222C6.25185 2.55724 5.8817 4.76955 6.40774 7.5378C6.46008 7.81194 6.51917 8.08467 6.58496 8.35571C6.27785 8.44555 5.98124 8.54128 5.69748 8.64314C3.15889 9.5546 1.5376 10.9832 1.5376 12.4649C1.5376 13.9954 3.27796 15.5304 5.92224 16.4611C6.13665 16.5363 6.35285 16.6059 6.57063 16.6699C6.49988 16.9619 6.43707 17.2559 6.38227 17.5515C5.88075 20.2717 6.27244 22.4315 7.51881 23.172C8.80615 23.9364 10.9667 23.1506 13.0707 21.2567C13.237 21.107 13.4039 20.9482 13.571 20.7817C13.7815 20.9909 13.9977 21.194 14.2192 21.3908C16.2571 23.1968 18.2698 23.926 19.5151 23.1836C20.8013 22.4169 21.2192 20.0966 20.6765 17.2736C20.6351 17.058 20.5868 16.8377 20.5327 16.6135C20.6844 16.5674 20.8333 16.5197 20.9786 16.4701C23.7275 15.5322 25.5159 14.0158 25.5159 12.4649C25.5159 10.9779 23.8424 9.53963 21.2527 8.6215Z" fill="#53C1DE"/>
<path d="M20.6564 15.4689C20.5253 15.5136 20.3908 15.5567 20.2536 15.5986C19.9501 14.6092 19.5405 13.5571 19.0394 12.4702C19.5177 11.409 19.9114 10.3705 20.2064 9.38743C20.4517 9.46065 20.6898 9.5377 20.9192 9.61912C23.1382 10.4057 24.4916 11.5688 24.4916 12.465C24.4916 13.4196 23.0298 14.6589 20.6565 15.4689H20.6564ZM19.6716 17.4785C19.9115 18.7268 19.9458 19.8554 19.7868 20.7377C19.644 21.5305 19.3568 22.059 19.0018 22.2707C18.2461 22.7212 16.63 22.1356 14.8873 20.5912C14.6875 20.4141 14.4862 20.2251 14.2843 20.0251C14.96 19.264 15.6352 18.3792 16.2942 17.3967C17.4535 17.2908 18.5486 17.1176 19.5418 16.8812C19.5906 17.0845 19.6341 17.2837 19.6716 17.4785ZM9.71227 22.1929C8.97399 22.4614 8.38599 22.4691 8.03059 22.258C7.27417 21.8089 6.95985 20.0745 7.38867 17.7483C7.43967 17.4734 7.49806 17.2 7.56377 16.9284C8.54591 17.1521 9.6331 17.3131 10.7951 17.4101C11.4585 18.3715 12.1532 19.2552 12.8534 20.0291C12.7046 20.1774 12.5523 20.3218 12.3966 20.4623C11.4662 21.2999 10.534 21.894 9.71237 22.1929H9.71227ZM6.25351 15.463C5.08429 15.0514 4.11871 14.5165 3.45684 13.9329C2.86215 13.4083 2.56183 12.8876 2.56183 12.465C2.56183 11.5659 3.8636 10.4189 6.0347 9.63934C6.3072 9.54192 6.58242 9.45274 6.85999 9.37191C7.16009 10.377 7.55369 11.4279 8.02868 12.4907C7.54754 13.5692 7.14831 14.6368 6.84545 15.6538C6.64665 15.5952 6.44928 15.5315 6.25351 15.463ZM7.41298 7.33522C6.96229 4.96335 7.26154 3.1742 8.01467 2.72525C8.81694 2.247 10.5907 2.92896 12.4603 4.63855C12.5798 4.74784 12.6998 4.86226 12.8201 4.98062C12.1235 5.75099 11.4351 6.62802 10.7775 7.58385C9.64976 7.6915 8.57021 7.8644 7.57778 8.09598C7.51665 7.84382 7.46169 7.59012 7.41298 7.33512V7.33522ZM17.7561 9.96545C17.5217 9.54846 17.2786 9.13671 17.027 8.7305C17.7921 8.82995 18.5251 8.96219 19.2134 9.12405C19.0067 9.80611 18.7492 10.5193 18.4459 11.2505C18.2243 10.8174 17.9943 10.389 17.7561 9.96545ZM13.5382 5.73449C14.0106 6.26158 14.4838 6.85021 14.9493 7.48877C14.0051 7.44283 13.0594 7.44261 12.1152 7.48812C12.5811 6.85545 13.0583 6.2677 13.5382 5.73449ZM9.2932 9.97267C9.05798 10.3929 8.8323 10.8187 8.61637 11.2497C8.31807 10.5211 8.06285 9.80469 7.85443 9.1129C8.53859 8.9552 9.26816 8.82635 10.0283 8.72853C9.77384 9.13726 9.52874 9.55209 9.2932 9.97267ZM10.0502 16.2767C9.26487 16.1864 8.52426 16.0641 7.84032 15.9108C8.05203 15.2068 8.31287 14.475 8.61754 13.7307C8.83438 14.1621 9.06104 14.5882 9.29734 15.0085C9.53846 15.4374 9.78946 15.8602 10.0502 16.2767ZM13.5665 19.27C13.081 18.7304 12.5968 18.1337 12.1238 17.4919C12.5829 17.5105 13.051 17.5199 13.5267 17.5199C14.0155 17.5199 14.4987 17.5086 14.9742 17.4867C14.5073 18.1403 14.0358 18.7379 13.5665 19.27ZM18.4557 13.6928C18.7761 14.4452 19.0463 15.173 19.2609 15.8651C18.5656 16.0285 17.815 16.1601 17.0241 16.2578C17.2776 15.844 17.523 15.4251 17.7603 15.0012C18.0015 14.5704 18.2333 14.1342 18.4557 13.6928ZM16.8729 14.4742C16.5097 15.124 16.126 15.7615 15.7226 16.3857C15.0111 16.438 14.2759 16.465 13.5267 16.465C12.7806 16.465 12.0547 16.4411 11.3557 16.3944C10.9418 15.7717 10.5509 15.1331 10.1839 14.48C9.81853 13.8304 9.47729 13.1667 9.16087 12.4903C9.47648 11.8138 9.8167 11.1497 10.1808 10.4995V10.4998C10.5448 9.84943 10.9326 9.21357 11.3434 8.59356C12.0566 8.53805 12.7877 8.50898 13.5268 8.50898C14.2693 8.50898 15.0014 8.53826 15.7143 8.59422C16.121 9.21328 16.5063 9.84692 16.8696 10.494C17.2349 11.1427 17.5797 11.8035 17.9033 12.4754C17.583 13.154 17.2394 13.8207 16.873 14.4742H16.8729ZM18.9861 2.69388C19.789 3.17081 20.1013 5.09395 19.5968 7.61598C19.5637 7.78028 19.5278 7.94395 19.489 8.1069C18.4942 7.87052 17.4139 7.69456 16.2829 7.58528C15.624 6.61906 14.9413 5.7405 14.256 4.98007C14.4356 4.80178 14.6194 4.6281 14.8074 4.45921C16.5777 2.87257 18.2322 2.24613 18.9861 2.69388Z" fill="white"/>
<path d="M13.5268 10.2598C14.7093 10.2598 15.6679 11.2471 15.6679 12.4649C15.6679 13.6828 14.7093 14.6701 13.5268 14.6701C12.3443 14.6701 11.3856 13.6828 11.3856 12.4649C11.3856 11.2471 12.3443 10.2598 13.5268 10.2598Z" fill="#53C1DE"/>
<path d="M52.4382 6.52025H59.9826V7.14154H53.1299V11.817H59.5739V12.4383H53.1299V17.5715H60.0612V18.1928H52.4382V6.52025ZM60.6584 6.52025H61.4601L65.0123 11.6535L68.643 6.52025L73.5813 0L65.4681 12.193L69.6489 18.1928H68.8158L65.0123 12.7325L61.193 18.1928H60.3756L64.5878 12.193L60.6587 6.52025H60.6584ZM69.9476 7.14154V6.52025H78.5448V7.14154H74.5843V18.1925H73.8925V7.14154H69.9479H69.9476ZM43 6.52025H43.8645L55.7848 25L50.8586 18.1928L43.7229 7.40304L43.6915 18.1928H43V6.52025ZM78.4755 17.3839C78.3339 17.3839 78.2279 17.2705 78.2279 17.1241C78.2279 16.9774 78.3338 16.864 78.4752 16.864C78.6182 16.864 78.7225 16.9774 78.7225 17.1241C78.7225 17.2705 78.6182 17.3839 78.4752 17.3839H78.4755ZM79.1548 16.6999H79.525C79.5302 16.9076 79.6767 17.0471 79.8918 17.0471C80.1323 17.0471 80.2685 16.8973 80.2685 16.6162V14.8366H80.6453V16.6179C80.6453 17.1241 80.3628 17.4155 79.895 17.4155C79.4562 17.4155 79.1551 17.1327 79.1551 16.6999H79.1548ZM81.1379 16.6775H81.5114C81.5434 16.9163 81.7687 17.0681 82.0935 17.0681C82.396 17.0681 82.6181 16.9057 82.6181 16.6825C82.6181 16.4907 82.477 16.3754 82.1555 16.297L81.8427 16.2186C81.4039 16.1122 81.2035 15.8921 81.2035 15.5223C81.2035 15.0737 81.5567 14.7753 82.0864 14.7753C82.5794 14.7753 82.9396 15.0737 82.9613 15.4976H82.5945C82.5593 15.2658 82.3643 15.1208 82.0816 15.1208C81.7836 15.1208 81.5854 15.2692 81.5854 15.496C81.5854 15.6757 81.7132 15.7787 82.0296 15.8555L82.2969 15.9235C82.7947 16.0439 83 16.2533 83 16.6319C83 17.1134 82.6398 17.4155 82.0648 17.4155C81.5266 17.4155 81.1647 17.1274 81.1379 16.6772V16.6775Z" fill="black"/>
</svg>
