<svg width="91" height="22" viewBox="0 0 91 22" fill="none" xmlns="http://www.w3.org/2000/svg">
<path d="M29.74 14V6.9H32.88C33.2067 6.9 33.5067 6.96667 33.78 7.1C34.06 7.23333 34.3 7.41333 34.5 7.64C34.7067 7.86667 34.8633 8.12 34.97 8.4C35.0833 8.68 35.14 8.96667 35.14 9.26C35.14 9.71333 35.0233 10.13 34.79 10.51C34.5633 10.89 34.2533 11.1633 33.86 11.33L35.48 14H33.96L32.5 11.62H31.12V14H29.74ZM31.12 10.41H32.85C33.11 10.41 33.3233 10.3 33.49 10.08C33.6633 9.85333 33.75 9.58 33.75 9.26C33.75 9.04 33.7033 8.84333 33.61 8.67C33.5167 8.49667 33.3967 8.36 33.25 8.26C33.11 8.16 32.9567 8.11 32.79 8.11H31.12V10.41ZM38.5146 14.1C37.9479 14.1 37.4579 13.9767 37.0446 13.73C36.6379 13.4833 36.3213 13.1567 36.0946 12.75C35.8679 12.3367 35.7546 11.89 35.7546 11.41C35.7546 10.9167 35.8646 10.4633 36.0846 10.05C36.3113 9.63 36.6313 9.29667 37.0446 9.05C37.4579 8.79667 37.9513 8.67 38.5246 8.67C39.0979 8.67 39.5879 8.79667 39.9946 9.05C40.4013 9.29667 40.7113 9.62667 40.9246 10.04C41.1446 10.4467 41.2546 10.8867 41.2546 11.36C41.2546 11.5333 41.2446 11.6833 41.2246 11.81H37.1746C37.2079 12.2167 37.3579 12.5367 37.6246 12.77C37.8979 13.0033 38.2113 13.12 38.5646 13.12C38.8313 13.12 39.0813 13.0567 39.3146 12.93C39.5546 12.7967 39.7179 12.6233 39.8046 12.41L40.9546 12.73C40.7613 13.13 40.4513 13.46 40.0246 13.72C39.5979 13.9733 39.0946 14.1 38.5146 14.1ZM37.1446 10.96H39.8846C39.8446 10.5667 39.6946 10.25 39.4346 10.01C39.1813 9.76333 38.8713 9.64 38.5046 9.64C38.1446 9.64 37.8346 9.76333 37.5746 10.01C37.3213 10.25 37.1779 10.5667 37.1446 10.96ZM41.7109 12.45C41.7109 12.11 41.8043 11.8133 41.9909 11.56C42.1843 11.3 42.4509 11.1 42.7909 10.96C43.1309 10.82 43.5209 10.75 43.9609 10.75C44.1809 10.75 44.4043 10.77 44.6309 10.81C44.8576 10.8433 45.0543 10.8933 45.2209 10.96V10.68C45.2209 10.3467 45.1209 10.09 44.9209 9.91C44.7276 9.73 44.4376 9.64 44.0509 9.64C43.7643 9.64 43.4909 9.69 43.2309 9.79C42.9709 9.89 42.6976 10.0367 42.4109 10.23L41.9809 9.35C42.3276 9.12333 42.6809 8.95333 43.0409 8.84C43.4076 8.72667 43.7909 8.67 44.1909 8.67C44.9376 8.67 45.5176 8.85667 45.9309 9.23C46.3509 9.60333 46.5609 10.1367 46.5609 10.83V12.5C46.5609 12.6467 46.5843 12.75 46.6309 12.81C46.6776 12.8633 46.7609 12.8967 46.8809 12.91V14C46.7609 14.0267 46.6509 14.0433 46.5509 14.05C46.4576 14.0633 46.3776 14.07 46.3109 14.07C46.0443 14.07 45.8409 14.01 45.7009 13.89C45.5609 13.77 45.4776 13.6233 45.4509 13.45L45.4209 13.18C45.1876 13.48 44.9009 13.71 44.5609 13.87C44.2276 14.0233 43.8843 14.1 43.5309 14.1C43.1776 14.1 42.8643 14.03 42.5909 13.89C42.3176 13.7433 42.1009 13.5467 41.9409 13.3C41.7876 13.0467 41.7109 12.7633 41.7109 12.45ZM44.9709 12.72C45.1376 12.56 45.2209 12.4067 45.2209 12.26V11.73C44.8743 11.59 44.5243 11.52 44.1709 11.52C43.8176 11.52 43.5309 11.5967 43.3109 11.75C43.0909 11.8967 42.9809 12.0933 42.9809 12.34C42.9809 12.54 43.0609 12.72 43.2209 12.88C43.3809 13.04 43.6109 13.12 43.9109 13.12C44.1109 13.12 44.3043 13.0833 44.4909 13.01C44.6843 12.9367 44.8443 12.84 44.9709 12.72ZM50.2531 14.1C49.6865 14.1 49.1965 13.9733 48.7831 13.72C48.3698 13.4667 48.0498 13.1333 47.8231 12.72C47.5965 12.3067 47.4831 11.86 47.4831 11.38C47.4831 10.8933 47.5931 10.4433 47.8131 10.03C48.0398 9.61667 48.3598 9.28667 48.7731 9.04C49.1865 8.79333 49.6765 8.67 50.2431 8.67C50.8165 8.67 51.3031 8.79333 51.7031 9.04C52.1098 9.28667 52.4131 9.61 52.6131 10.01L51.3031 10.41C51.0698 10.01 50.7131 9.81 50.2331 9.81C49.9731 9.81 49.7398 9.87667 49.5331 10.01C49.3265 10.1367 49.1631 10.32 49.0431 10.56C48.9231 10.7933 48.8631 11.0667 48.8631 11.38C48.8631 11.6867 48.9231 11.96 49.0431 12.2C49.1698 12.4333 49.3365 12.62 49.5431 12.76C49.7498 12.8933 49.9798 12.96 50.2331 12.96C50.4731 12.96 50.6931 12.9033 50.8931 12.79C51.0998 12.67 51.2431 12.52 51.3231 12.34L52.6331 12.74C52.4531 13.1333 52.1531 13.46 51.7331 13.72C51.3198 13.9733 50.8265 14.1 50.2531 14.1ZM56.5977 13.73C56.4177 13.81 56.1943 13.89 55.9277 13.97C55.6677 14.05 55.3977 14.09 55.1177 14.09C54.871 14.09 54.6443 14.0467 54.4377 13.96C54.231 13.8733 54.0643 13.7367 53.9377 13.55C53.8177 13.3567 53.7577 13.1067 53.7577 12.8V9.79H53.0677V8.76H53.7577V7.06H55.0977V8.76H56.1977V9.79H55.0977V12.35C55.0977 12.53 55.1443 12.66 55.2377 12.74C55.3377 12.82 55.4577 12.86 55.5977 12.86C55.7377 12.86 55.8743 12.8367 56.0077 12.79C56.141 12.7433 56.2477 12.7033 56.3277 12.67L56.5977 13.73ZM61.2079 9.44V14H59.8279V6.9H60.9279L64.5979 11.58V6.91H65.9779V14H64.8279L61.2079 9.44ZM66.9063 12.45C66.9063 12.11 66.9996 11.8133 67.1863 11.56C67.3796 11.3 67.6463 11.1 67.9863 10.96C68.3263 10.82 68.7163 10.75 69.1562 10.75C69.3763 10.75 69.5996 10.77 69.8263 10.81C70.0529 10.8433 70.2496 10.8933 70.4163 10.96V10.68C70.4163 10.3467 70.3163 10.09 70.1163 9.91C69.9229 9.73 69.6329 9.64 69.2463 9.64C68.9596 9.64 68.6863 9.69 68.4263 9.79C68.1663 9.89 67.8929 10.0367 67.6063 10.23L67.1763 9.35C67.5229 9.12333 67.8763 8.95333 68.2363 8.84C68.6029 8.72667 68.9863 8.67 69.3863 8.67C70.1329 8.67 70.7129 8.85667 71.1263 9.23C71.5463 9.60333 71.7563 10.1367 71.7563 10.83V12.5C71.7563 12.6467 71.7796 12.75 71.8263 12.81C71.8729 12.8633 71.9563 12.8967 72.0763 12.91V14C71.9563 14.0267 71.8463 14.0433 71.7463 14.05C71.6529 14.0633 71.5729 14.07 71.5063 14.07C71.2396 14.07 71.0363 14.01 70.8963 13.89C70.7563 13.77 70.6729 13.6233 70.6463 13.45L70.6163 13.18C70.3829 13.48 70.0963 13.71 69.7563 13.87C69.4229 14.0233 69.0796 14.1 68.7263 14.1C68.3729 14.1 68.0596 14.03 67.7863 13.89C67.5129 13.7433 67.2963 13.5467 67.1363 13.3C66.9829 13.0467 66.9063 12.7633 66.9063 12.45ZM70.1663 12.72C70.3329 12.56 70.4163 12.4067 70.4163 12.26V11.73C70.0696 11.59 69.7196 11.52 69.3663 11.52C69.0129 11.52 68.7263 11.5967 68.5063 11.75C68.2863 11.8967 68.1763 12.0933 68.1763 12.34C68.1763 12.54 68.2563 12.72 68.4163 12.88C68.5763 13.04 68.8063 13.12 69.1063 13.12C69.3063 13.12 69.4996 13.0833 69.6863 13.01C69.8796 12.9367 70.0396 12.84 70.1663 12.72ZM76.0996 13.73C75.9196 13.81 75.6963 13.89 75.4296 13.97C75.1696 14.05 74.8996 14.09 74.6196 14.09C74.3729 14.09 74.1463 14.0467 73.9396 13.96C73.7329 13.8733 73.5663 13.7367 73.4396 13.55C73.3196 13.3567 73.2596 13.1067 73.2596 12.8V9.79H72.5696V8.76H73.2596V7.06H74.5996V8.76H75.6996V9.79H74.5996V12.35C74.5996 12.53 74.6463 12.66 74.7396 12.74C74.8396 12.82 74.9596 12.86 75.0996 12.86C75.2396 12.86 75.3763 12.8367 75.5096 12.79C75.6429 12.7433 75.7496 12.7033 75.8296 12.67L76.0996 13.73ZM76.7975 8.03V6.7H78.1375V8.03H76.7975ZM76.7975 14V8.76H78.1375V14H76.7975ZM80.7563 14L78.8263 8.76H80.2163L81.5363 12.78L82.8663 8.76H84.1363L82.2163 14H80.7563ZM87.0986 14.1C86.5319 14.1 86.0419 13.9767 85.6286 13.73C85.2219 13.4833 84.9053 13.1567 84.6786 12.75C84.4519 12.3367 84.3386 11.89 84.3386 11.41C84.3386 10.9167 84.4486 10.4633 84.6686 10.05C84.8953 9.63 85.2153 9.29667 85.6286 9.05C86.0419 8.79667 86.5353 8.67 87.1086 8.67C87.6819 8.67 88.1719 8.79667 88.5786 9.05C88.9853 9.29667 89.2953 9.62667 89.5086 10.04C89.7286 10.4467 89.8386 10.8867 89.8386 11.36C89.8386 11.5333 89.8286 11.6833 89.8086 11.81H85.7586C85.7919 12.2167 85.9419 12.5367 86.2086 12.77C86.4819 13.0033 86.7953 13.12 87.1486 13.12C87.4153 13.12 87.6653 13.0567 87.8986 12.93C88.1386 12.7967 88.3019 12.6233 88.3886 12.41L89.5386 12.73C89.3453 13.13 89.0353 13.46 88.6086 13.72C88.1819 13.9733 87.6786 14.1 87.0986 14.1ZM85.7286 10.96H88.4686C88.4286 10.5667 88.2786 10.25 88.0186 10.01C87.7653 9.76333 87.4553 9.64 87.0886 9.64C86.7286 9.64 86.4186 9.76333 86.1586 10.01C85.9053 10.25 85.7619 10.5667 85.7286 10.96Z" fill="#53C1DE"/>
<path d="M0 10.9605C0 12.8084 1.99112 14.5335 5.13014 15.5059C4.50329 18.3658 5.01786 20.671 6.73636 21.5692C8.50272 22.4924 11.1343 21.8534 13.632 19.8746C16.0667 21.7734 18.5273 22.5207 20.2443 21.6199C22.0091 20.6941 22.5457 18.2326 21.9016 15.2834C25.1711 14.3037 27 12.8328 27 10.9605C27 9.15537 25.0053 7.5938 21.9085 6.62765C22.602 3.55654 22.0144 1.30733 20.2247 0.372041C18.4993 -0.529682 16.01 0.256248 13.5396 2.20472C10.9694 0.136608 8.50474 -0.494771 6.71694 0.443113C4.99314 1.34743 4.50127 3.69455 5.13014 6.60735C2.09703 7.56572 0 9.16268 0 10.9605Z" fill="white"/>
<path d="M21.7329 7.48235C21.4775 7.40028 21.2198 7.32425 20.9603 7.25433C21.0033 7.09052 21.0431 6.92598 21.0797 6.76079C21.6645 4.10177 21.2821 1.95968 19.9763 1.25453C18.7244 0.578239 16.6767 1.28338 14.6087 2.96895C14.4049 3.13542 14.2057 3.30668 14.0112 3.48258C13.8809 3.36562 13.7483 3.25093 13.6135 3.13857C11.4462 1.33611 9.27373 0.576647 7.9693 1.28388C6.71851 1.96207 6.34803 3.97593 6.87454 6.49586C6.92693 6.74541 6.98607 6.99367 7.05192 7.2404C6.74453 7.32218 6.44766 7.40933 6.16364 7.50205C3.62276 8.33175 2 9.63221 2 10.981C2 12.3742 3.74193 13.7715 6.38861 14.6188C6.60321 14.6871 6.81961 14.7505 7.03758 14.8088C6.96677 15.0746 6.9039 15.3422 6.84905 15.6113C6.34708 18.0875 6.73912 20.0536 7.98662 20.7276C9.27512 21.4235 11.4377 20.7082 13.5435 18.9841C13.7099 18.8478 13.877 18.7033 14.0443 18.5518C14.255 18.7422 14.4713 18.9271 14.6931 19.1062C16.7328 20.7502 18.7473 21.414 19.9937 20.7382C21.2811 20.0403 21.6993 17.9281 21.1562 15.3583C21.1147 15.162 21.0664 14.9616 21.0122 14.7574C21.1641 14.7155 21.3131 14.6721 21.4585 14.6269C24.21 13.7731 26 12.3928 26 10.981C26 9.62733 24.325 8.31812 21.7329 7.48235Z" fill="#53C1DE"/>
<path d="M21.1525 13.7031C21.021 13.7436 20.886 13.7827 20.7484 13.8206C20.444 12.9241 20.033 11.9708 19.5303 10.986C20.0102 10.0245 20.4051 9.08347 20.7011 8.19274C20.9471 8.25909 21.186 8.3289 21.4162 8.40268C23.6422 9.11536 25 10.1693 25 10.9813C25 11.8463 23.5335 12.9692 21.1526 13.7031H21.1525ZM20.1645 15.524C20.4052 16.6551 20.4396 17.6777 20.2801 18.4771C20.1368 19.1955 19.8488 19.6744 19.4925 19.8662C18.7345 20.2743 17.1132 19.7438 15.3649 18.3444C15.1645 18.1839 14.9625 18.0126 14.76 17.8314C15.4378 17.1418 16.1152 16.3401 16.7763 15.4499C17.9393 15.3539 19.038 15.197 20.0343 14.9828C20.0833 15.1669 20.1269 15.3475 20.1645 15.524ZM10.1733 19.7957C9.43269 20.039 8.8428 20.0459 8.48627 19.8547C7.72743 19.4477 7.41209 17.8762 7.8423 15.7684C7.89345 15.5193 7.95203 15.2716 8.01795 15.0255C9.00323 15.2282 10.0939 15.3741 11.2596 15.462C11.9251 16.3332 12.6221 17.1339 13.3245 17.8351C13.1752 17.9694 13.0224 18.1003 12.8662 18.2276C11.9329 18.9865 10.9976 19.5248 10.1734 19.7957H10.1733ZM6.7035 13.6977C5.53053 13.3248 4.56186 12.8402 3.89788 12.3114C3.30128 11.8361 3 11.3642 3 10.9813C3 10.1666 4.30593 9.12734 6.48398 8.42099C6.75736 8.33273 7.03346 8.25192 7.31192 8.17868C7.61298 9.08941 8.00784 10.0416 8.48435 11.0045C8.00167 11.9818 7.60117 12.9492 7.29733 13.8706C7.09789 13.8175 6.89989 13.7599 6.7035 13.6977ZM7.86667 6.33326C7.41454 4.18413 7.71476 2.563 8.4703 2.1562C9.27513 1.72287 11.0546 2.34078 12.9302 3.88983C13.0501 3.98885 13.1705 4.09253 13.2911 4.19977C12.5923 4.8978 11.9017 5.69247 11.242 6.55854C10.1106 6.65608 9.02761 6.81274 8.03201 7.02257C7.97068 6.7941 7.91555 6.56422 7.86667 6.33316V6.33326ZM18.2429 8.71648C18.0078 8.33865 17.7639 7.96557 17.5114 7.59751C18.279 7.68762 19.0143 7.80744 19.7048 7.95409C19.4976 8.57211 19.2392 9.21834 18.9349 9.88082C18.7126 9.48846 18.4819 9.10027 18.2429 8.71648ZM14.0115 4.88285C14.4855 5.36044 14.9602 5.89379 15.4271 6.47239C14.4799 6.43076 13.5312 6.43056 12.584 6.4718C13.0513 5.89854 13.5301 5.36599 14.0115 4.88285ZM9.75292 8.72302C9.51694 9.10376 9.29054 9.48956 9.07392 9.88012C8.77466 9.21993 8.51863 8.57082 8.30954 7.94399C8.99589 7.8011 9.72779 7.68435 10.4904 7.59572C10.2351 7.96607 9.98921 8.34194 9.75292 8.72302ZM10.5123 14.4351C9.72449 14.3533 8.98151 14.2425 8.29539 14.1035C8.50777 13.4656 8.76945 12.8025 9.07509 12.1282C9.29263 12.519 9.52002 12.9051 9.75707 13.286C9.99896 13.6745 10.2508 14.0577 10.5123 14.4351ZM14.0399 17.1472C13.5529 16.6584 13.0671 16.1177 12.5926 15.5361C13.0532 15.5529 13.5227 15.5615 14 15.5615C14.4903 15.5615 14.9751 15.5513 15.4521 15.5315C14.9837 16.1236 14.5107 16.6651 14.0399 17.1472ZM18.9447 12.0938C19.2662 12.7755 19.5373 13.435 19.7525 14.0621C19.055 14.2102 18.302 14.3294 17.5086 14.4179C17.7628 14.043 18.0091 13.6634 18.2471 13.2793C18.4891 12.889 18.7217 12.4938 18.9447 12.0938ZM17.3569 12.8018C16.9925 13.3906 16.6076 13.9683 16.2029 14.5338C15.4892 14.5812 14.7516 14.6057 14 14.6057C13.2515 14.6057 12.5233 14.584 11.8221 14.5417C11.4068 13.9775 11.0147 13.3989 10.6464 12.8071C10.2799 12.2184 9.93759 11.6171 9.62016 11.0043C9.93679 10.3913 10.2781 9.78955 10.6433 9.20042V9.20062C11.0085 8.61136 11.3976 8.03521 11.8097 7.47343C12.5251 7.42312 13.2586 7.39678 14.0001 7.39678C14.7449 7.39678 15.4794 7.42332 16.1945 7.47402C16.6025 8.03495 16.9891 8.60908 17.3536 9.19537C17.7201 9.78319 18.0659 10.3819 18.3906 10.9907C18.0693 11.6056 17.7245 12.2097 17.357 12.8018H17.3569ZM19.4768 2.12778C20.2823 2.55993 20.5956 4.30246 20.0895 6.58765C20.0563 6.73652 20.0202 6.88482 19.9813 7.03247C18.9834 6.81828 17.8996 6.65885 16.765 6.55983C16.104 5.68435 15.4191 4.88829 14.7316 4.19928C14.9117 4.03772 15.0962 3.88036 15.2847 3.72733C17.0607 2.28969 18.7205 1.72208 19.4768 2.12778Z" fill="white"/>
<path d="M14 9C15.1046 9 16 9.89545 16 11C16 12.1045 15.1046 13 14 13C12.8955 13 12 12.1045 12 11C12 9.89545 12.8955 9 14 9Z" fill="#53C1DE"/>
</svg>
