<svg width="160" height="128" viewBox="0 0 160 128" fill="none" xmlns="http://www.w3.org/2000/svg">
<path d="M80.1686 108.912C69.3277 108.912 58.8221 105.155 50.442 98.2815C42.0619 91.408 36.3257 81.8431 34.2107 71.2166C32.0958 60.59 33.733 49.5593 38.8434 40.004C43.9538 30.4487 52.2212 22.9599 62.2369 18.8136C72.2526 14.6674 83.3969 14.1202 93.771 17.2654C104.145 20.4105 113.107 27.0534 119.13 36.0621C125.153 45.0709 127.864 55.8881 126.801 66.6706C125.739 77.4531 120.968 87.5339 113.303 95.1952C108.961 99.5575 103.798 103.016 98.1103 105.37C92.4228 107.725 86.3246 108.929 80.1686 108.912ZM80.1686 15.6087C54.5295 15.6087 33.6705 36.4558 33.6705 62.0802C33.6705 87.7047 54.5295 108.552 80.1686 108.552C105.808 108.552 126.667 87.7047 126.667 62.0802C126.667 36.4558 105.808 15.6087 80.1686 15.6087Z" fill="#CCCCCC"/>
<path d="M97.5676 115.935V68.7548H62.4324V115.935H97.5676Z" fill="#2F2E41"/>
<path d="M103.604 67.3142H56.3964V86.0422H103.604V67.3142Z" fill="#3F3D56"/>
<path d="M103.604 88.2031H56.3964V106.931H103.604V88.2031Z" fill="#3F3D56"/>
<path d="M103.604 109.092H56.3964V127.82H103.604V109.092Z" fill="#3F3D56"/>
<path d="M103.604 75.2549H56.3964V78.1361H103.604V75.2549Z" fill="#6C63FF"/>
<path d="M103.604 96.1438H56.3964V99.025H103.604V96.1438Z" fill="#6C63FF"/>
<path d="M103.604 117.033H56.3964V119.914H103.604V117.033Z" fill="#6C63FF"/>
<path d="M94.4144 71.0957C95.0115 71.0957 95.4955 70.612 95.4955 70.0153C95.4955 69.4186 95.0115 68.9348 94.4144 68.9348C93.8173 68.9348 93.3333 69.4186 93.3333 70.0153C93.3333 70.612 93.8173 71.0957 94.4144 71.0957Z" fill="#6C63FF"/>
<path d="M98.1982 71.0957C98.7953 71.0957 99.2793 70.612 99.2793 70.0153C99.2793 69.4186 98.7953 68.9348 98.1982 68.9348C97.6011 68.9348 97.1171 69.4186 97.1171 70.0153C97.1171 70.612 97.6011 71.0957 98.1982 71.0957Z" fill="#6C63FF"/>
<path d="M101.982 71.0957C102.579 71.0957 103.063 70.612 103.063 70.0153C103.063 69.4186 102.579 68.9348 101.982 68.9348C101.385 68.9348 100.901 69.4186 100.901 70.0153C100.901 70.612 101.385 71.0957 101.982 71.0957Z" fill="#6C63FF"/>
<path d="M94.4144 91.6246C95.0115 91.6246 95.4955 91.1408 95.4955 90.5441C95.4955 89.9474 95.0115 89.4636 94.4144 89.4636C93.8173 89.4636 93.3333 89.9474 93.3333 90.5441C93.3333 91.1408 93.8173 91.6246 94.4144 91.6246Z" fill="#6C63FF"/>
<path d="M98.1982 91.6246C98.7953 91.6246 99.2793 91.1408 99.2793 90.5441C99.2793 89.9474 98.7953 89.4636 98.1982 89.4636C97.6011 89.4636 97.1171 89.9474 97.1171 90.5441C97.1171 91.1408 97.6011 91.6246 98.1982 91.6246Z" fill="#6C63FF"/>
<path d="M101.982 91.6246C102.579 91.6246 103.063 91.1408 103.063 90.5441C103.063 89.9474 102.579 89.4636 101.982 89.4636C101.385 89.4636 100.901 89.9474 100.901 90.5441C100.901 91.1408 101.385 91.6246 101.982 91.6246Z" fill="#6C63FF"/>
<path d="M94.4144 112.153C95.0115 112.153 95.4955 111.67 95.4955 111.073C95.4955 110.476 95.0115 109.992 94.4144 109.992C93.8173 109.992 93.3333 110.476 93.3333 111.073C93.3333 111.67 93.8173 112.153 94.4144 112.153Z" fill="#6C63FF"/>
<path d="M98.1982 112.153C98.7953 112.153 99.2793 111.67 99.2793 111.073C99.2793 110.476 98.7953 109.992 98.1982 109.992C97.6011 109.992 97.1171 110.476 97.1171 111.073C97.1171 111.67 97.6011 112.153 98.1982 112.153Z" fill="#6C63FF"/>
<path d="M101.982 112.153C102.579 112.153 103.063 111.67 103.063 111.073C103.063 110.476 102.579 109.992 101.982 109.992C101.385 109.992 100.901 110.476 100.901 111.073C100.901 111.67 101.385 112.153 101.982 112.153Z" fill="#6C63FF"/>
<path d="M160 127.64H0V128H160V127.64Z" fill="#3F3D56"/>
<path d="M43.5817 48.8124V82.3052C43.5816 83.0059 43.303 83.6779 42.8073 84.1734C42.3115 84.6688 41.6392 84.9473 40.9381 84.9474H27.915C27.2137 84.9475 26.5411 84.6692 26.0451 84.1737C25.5491 83.6782 25.2704 83.0061 25.2702 82.3052V48.8124C25.2704 48.1116 25.5491 47.4395 26.0451 46.944C26.5411 46.4485 27.2137 46.1702 27.915 46.1703H29.4948C29.4172 46.3609 29.3877 46.5677 29.4088 46.7725C29.4299 46.9772 29.501 47.1736 29.6159 47.3444C29.7307 47.5153 29.8858 47.6553 30.0675 47.7522C30.2492 47.8491 30.4519 47.8999 30.6578 47.9001H38.0828C38.2887 47.8999 38.4914 47.8491 38.6731 47.7522C38.8548 47.6553 39.0099 47.5153 39.1247 47.3444C39.2396 47.1736 39.3107 46.9772 39.3318 46.7725C39.3529 46.5677 39.3234 46.3609 39.2458 46.1703H40.9381C41.6392 46.1704 42.3115 46.4488 42.8073 46.9443C43.303 47.4398 43.5816 48.1117 43.5817 48.8124Z" fill="#E6E6E6"/>
<path d="M42.7143 52.5663H26.1377V75.6161H42.7143V52.5663Z" fill="white"/>
<path d="M37.4605 68.4161H30.8443V68.794H37.4605V68.4161Z" fill="#E6E6E6"/>
<path d="M41.075 69.8035H30.8376V70.1813H41.075V69.8035Z" fill="#6C63FF"/>
<path d="M38.8716 71.1106H30.8376V71.4884H38.8716V71.1106Z" fill="#E6E6E6"/>
<path d="M35.5635 72.4177H30.8376V72.7955H35.5635V72.4177Z" fill="#E6E6E6"/>
<path d="M37.9264 73.7249H30.8376V74.1027H37.9264V73.7249Z" fill="#E6E6E6"/>
<path d="M28.6 68.3075H27.8439V69.0632H28.6V68.3075Z" fill="#E6E6E6"/>
<path d="M28.6 69.6145H27.8439V70.3702H28.6V69.6145Z" fill="#6C63FF"/>
<path d="M28.6 70.9218H27.8439V71.6775H28.6V70.9218Z" fill="#E6E6E6"/>
<path d="M28.6 72.2288H27.8439V72.9844H28.6V72.2288Z" fill="#E6E6E6"/>
<path d="M28.6 73.5359H27.8439V74.2915H28.6V73.5359Z" fill="#E6E6E6"/>
<path d="M37.7924 55.4475H31.1262V62.1099H37.7924V55.4475Z" fill="#E6E6E6"/>
<path d="M102.161 0.0250244H57.8577V28.3826H102.161V0.0250244Z" fill="#E6E6E6"/>
<path d="M97.9294 7.95862H61.1976V21.8309H97.9294V7.95862Z" fill="white"/>
<path d="M76.7056 10.3619H67.89V10.8654H76.7056V10.3619Z" fill="#E6E6E6"/>
<path d="M81.5218 12.2104H67.8812V12.7139H81.5218V12.2104Z" fill="#6C63FF"/>
<path d="M78.5859 13.9521H67.8812V14.4556H78.5859V13.9521Z" fill="#E6E6E6"/>
<path d="M74.1781 15.6938H67.8812V16.1973H74.1781V15.6938Z" fill="#E6E6E6"/>
<path d="M77.3265 17.4355H67.8812V17.939H77.3265V17.4355Z" fill="#E6E6E6"/>
<path d="M64.8996 10.2172H63.8921V11.2241H64.8996V10.2172Z" fill="#E6E6E6"/>
<path d="M64.8996 11.9589H63.8921V12.9658H64.8996V11.9589Z" fill="#6C63FF"/>
<path d="M64.8996 13.7004H63.8921V14.7074H64.8996V13.7004Z" fill="#E6E6E6"/>
<path d="M64.8996 15.4421H63.8921V16.4491H64.8996V15.4421Z" fill="#E6E6E6"/>
<path d="M64.8996 17.1837H63.8921V18.1906H64.8996V17.1837Z" fill="#E6E6E6"/>
<path d="M96.1268 9.69666H87.1072V18.7111H96.1268V9.69666Z" fill="#E6E6E6"/>
<path d="M102.142 0H57.8388V1.88109H102.142V0Z" fill="#6C63FF"/>
<path d="M59.2375 1.3393C59.4462 1.3393 59.6153 1.17024 59.6153 0.961702C59.6153 0.753162 59.4462 0.584106 59.2375 0.584106C59.0288 0.584106 58.8597 0.753162 58.8597 0.961702C58.8597 1.17024 59.0288 1.3393 59.2375 1.3393Z" fill="white"/>
<path d="M60.5617 1.3393C60.7704 1.3393 60.9395 1.17024 60.9395 0.961702C60.9395 0.753162 60.7704 0.584106 60.5617 0.584106C60.3531 0.584106 60.1839 0.753162 60.1839 0.961702C60.1839 1.17024 60.3531 1.3393 60.5617 1.3393Z" fill="white"/>
<path d="M61.8857 1.3393C62.0944 1.3393 62.2636 1.17024 62.2636 0.961702C62.2636 0.753162 62.0944 0.584106 61.8857 0.584106C61.6771 0.584106 61.5079 0.753162 61.5079 0.961702C61.5079 1.17024 61.6771 1.3393 61.8857 1.3393Z" fill="white"/>
<path d="M131.828 53.0881H121.018V58.6705H131.828V53.0881Z" fill="#E6E6E6"/>
<path d="M131.828 73.0767H121.018V78.659H131.828V73.0767Z" fill="#E6E6E6"/>
<path d="M126.423 74.8775C131.399 74.8775 135.432 70.8463 135.432 65.8736C135.432 60.9009 131.399 56.8698 126.423 56.8698C121.447 56.8698 117.414 60.9009 117.414 65.8736C117.414 70.8463 121.447 74.8775 126.423 74.8775Z" fill="#E6E6E6"/>
<path d="M126.423 72.8966C130.304 72.8966 133.45 69.7523 133.45 65.8736C133.45 61.9949 130.304 58.8506 126.423 58.8506C122.542 58.8506 119.396 61.9949 119.396 65.8736C119.396 69.7523 122.542 72.8966 126.423 72.8966Z" fill="white"/>
<path d="M129.572 63.9492H124.122V64.2605H129.572V63.9492Z" fill="#E2E2E2"/>
<path d="M132.549 65.092H124.116V65.4033H132.549V65.092Z" fill="#6C63FF"/>
<path d="M130.734 66.1688H124.116V66.4801H130.734V66.1688Z" fill="#E2E2E2"/>
<path d="M128.009 67.2455H124.116V67.5567H128.009V67.2455Z" fill="#E2E2E2"/>
<path d="M129.956 68.3221H124.116V68.6334H129.956V68.3221Z" fill="#E2E2E2"/>
<path d="M122.273 63.8597H121.65V64.4822H122.273V63.8597Z" fill="#E2E2E2"/>
<path d="M122.273 64.9364H121.65V65.5589H122.273V64.9364Z" fill="#6C63FF"/>
<path d="M122.273 66.0132H121.65V66.6357H122.273V66.0132Z" fill="#E2E2E2"/>
<path d="M122.273 67.0897H121.65V67.7122H122.273V67.0897Z" fill="#E2E2E2"/>
<path d="M122.273 68.1665H121.65V68.789H122.273V68.1665Z" fill="#E2E2E2"/>
</svg>
