<svg width="70" height="25" viewBox="0 0 70 25" fill="none" xmlns="http://www.w3.org/2000/svg">
<path d="M10.7523 0.158539L0.612667 5.8133C0.233337 6.02453 0 6.41529 0 6.83799V18.1568C0 18.5798 0.233338 18.9703 0.612185 19.182L10.7518 24.8414C11.1309 25.0529 11.598 25.0529 11.9774 24.8414L22.1191 19.182C22.4982 18.9703 22.7315 18.5798 22.7315 18.1568V6.83845C22.7315 6.41529 22.4982 6.02453 22.1189 5.8133L11.9769 0.158539C11.7874 0.0526886 11.5761 0 11.3644 0C11.1531 0 10.9414 0.0526886 10.7523 0.158539Z" fill="#2261A8"/>
<path d="M6.85145 24.1811H9.2361V15.0144H12.5406V12.9901H3.547V15.0144H6.85145V24.1811Z" fill="white"/>
<path d="M17.5302 24.3298C19.7957 24.3298 21.482 23.1942 21.482 21.1205C21.482 19.195 20.3407 18.3392 18.3138 17.4998L17.7176 17.253C16.6956 16.8251 16.2528 16.5453 16.2528 15.8541C16.2528 15.2945 16.6956 14.8666 17.394 14.8666C18.0753 14.8666 18.5182 15.1464 18.927 15.8541L20.7836 14.702C20.0001 13.369 18.9099 12.8588 17.394 12.8588C15.2648 12.8588 13.9022 14.1754 13.9022 15.9034C13.9022 17.7796 15.0434 18.6683 16.7637 19.376L17.3599 19.6229C18.45 20.0837 19.0973 20.3635 19.0973 21.1534C19.0973 21.8117 18.4671 22.289 17.4791 22.289C16.3039 22.289 15.6396 21.6965 15.1286 20.8901L13.1868 21.9763C13.8851 23.3094 15.3159 24.3298 17.5302 24.3298Z" fill="white"/>
<path fill-rule="evenodd" clip-rule="evenodd" d="M35.3703 16.5199C35.3703 16.3426 35.2737 16.1796 35.1154 16.0917L30.8937 13.7443C30.8224 13.7038 30.7423 13.6826 30.6613 13.6794H30.6177C30.537 13.6826 30.457 13.7038 30.3845 13.7443L26.1629 16.0917C26.0055 16.1796 25.9077 16.3426 25.9077 16.5199L25.9169 22.8407C25.9169 22.9287 25.9642 23.0104 26.0443 23.0535C26.1226 23.0989 26.2195 23.0989 26.2975 23.0535L28.8065 21.6655C28.9651 21.5744 29.0617 21.4137 29.0617 21.238V18.2849C29.0617 18.1089 29.1582 17.9459 29.3162 17.8584L30.3845 17.2639C30.4643 17.2194 30.5512 17.1978 30.6402 17.1978C30.7271 17.1978 30.8164 17.2194 30.8937 17.2639L31.9617 17.8584C32.1198 17.9459 32.2167 18.1089 32.2167 18.2849V21.238C32.2167 21.4137 32.3145 21.5754 32.4722 21.6655L34.9804 23.0535C35.0592 23.0989 35.1574 23.0989 35.2354 23.0535C35.3131 23.0104 35.362 22.9287 35.362 22.8407L35.3703 16.5199Z" fill="#333333"/>
<path fill-rule="evenodd" clip-rule="evenodd" d="M55.2915 19.811C55.2915 19.8549 55.2672 19.8956 55.2277 19.9175L53.7776 20.7251C53.7383 20.747 53.6897 20.747 53.6503 20.7251L52.2003 19.9175C52.1608 19.8956 52.1365 19.8549 52.1365 19.811V18.1933C52.1365 18.1494 52.1607 18.1086 52.2002 18.0866L53.6502 17.2773C53.6897 17.2553 53.7383 17.2553 53.7778 17.2773L55.2278 18.0866C55.2672 18.1086 55.2915 18.1494 55.2915 18.1933V19.811ZM55.6834 7.83072C55.6043 7.78826 55.5079 7.78922 55.4298 7.83345C55.352 7.87775 55.304 7.95854 55.304 8.04587V14.3056C55.304 14.3671 55.27 14.4241 55.2149 14.4549C55.1597 14.4858 55.0917 14.4858 55.0364 14.4549L53.979 13.8663C53.8212 13.7785 53.6272 13.7786 53.4695 13.8665L49.2462 16.2214C49.0883 16.3094 48.9911 16.4721 48.9911 16.6481V21.3588C48.9911 21.5349 49.0883 21.6974 49.2461 21.7856L53.4691 24.1423C53.627 24.2303 53.8214 24.2303 53.9793 24.1423L58.2031 21.7856C58.3608 21.6974 58.4581 21.5349 58.4581 21.3588V9.61603C58.4581 9.43751 58.358 9.27275 58.1965 9.1857L55.6834 7.83072Z" fill="#333333"/>
<path fill-rule="evenodd" clip-rule="evenodd" d="M69.7463 18.151C69.9033 18.0628 70 17.9006 70 17.725V16.5835C70 16.4079 69.9033 16.2455 69.7461 16.1573L65.5499 13.8033C65.3921 13.7147 65.1971 13.7145 65.039 13.8028L60.8171 16.1577C60.6595 16.2457 60.5622 16.4083 60.5622 16.5844V21.2939C60.5622 21.471 60.6607 21.6344 60.8198 21.7219L65.0153 24.0318C65.17 24.1172 65.3597 24.1181 65.5154 24.0346L68.0531 22.6717C68.1335 22.6285 68.1836 22.5468 68.1841 22.458C68.1847 22.3692 68.1359 22.2869 68.0562 22.2427L63.8076 19.8865C63.7283 19.8426 63.6796 19.761 63.6796 19.6728V18.1969C63.6796 18.1089 63.7281 18.0274 63.8071 17.9835L65.1294 17.2469C65.2081 17.203 65.3053 17.203 65.3839 17.2469L66.7068 17.9835C66.7859 18.0274 66.8345 18.1089 66.8345 18.1969V19.3581C66.8345 19.4463 66.8832 19.5277 66.9623 19.5717C67.0413 19.6158 67.1387 19.6155 67.2175 19.5711L69.7463 18.151Z" fill="#333333"/>
<path fill-rule="evenodd" clip-rule="evenodd" d="M65.2322 17.9304C65.2625 17.9135 65.2998 17.9135 65.3301 17.9304L66.1405 18.3822C66.1708 18.3991 66.1894 18.4302 66.1894 18.4641V19.3682C66.1894 19.402 66.1707 19.4333 66.1405 19.4502L65.3301 19.9019C65.2998 19.9188 65.2625 19.9188 65.2322 19.9019L64.4225 19.4502C64.3923 19.4332 64.3735 19.402 64.3735 19.3682V18.4641C64.3735 18.4302 64.3923 18.3991 64.4225 18.3822L65.2322 17.9304Z" fill="#2261A8"/>
<path d="M41.9274 13.827L37.7395 16.1625C37.5828 16.2498 37.4865 16.4112 37.4865 16.5858V21.2607C37.4865 21.4354 37.5828 21.5967 37.7393 21.6842L41.9272 24.0217C42.0837 24.109 42.2767 24.109 42.4333 24.0217L46.6221 21.6842C46.7787 21.5967 46.8751 21.4354 46.8751 21.2607V16.5859C46.8751 16.4112 46.7787 16.2498 46.622 16.1625L42.4332 13.827C42.3549 13.7832 42.2676 13.7615 42.1802 13.7615C42.0929 13.7615 42.0055 13.7832 41.9274 13.827Z" fill="#2261A8"/>
</svg>
