<svg width="133" height="128" viewBox="0 0 133 128" fill="none" xmlns="http://www.w3.org/2000/svg">
<path opacity="0.4" d="M118.825 79.543C126.654 79.543 133 73.2224 133 65.4257C133 57.6289 126.654 51.3083 118.825 51.3083C110.997 51.3083 104.651 57.6289 104.651 65.4257C104.651 73.2224 110.997 79.543 118.825 79.543Z" fill="#6C63FF"/>
<path d="M119.149 84.9595H40.1057V106.296H119.149V84.9595Z" fill="#3F3D56"/>
<path d="M114.086 32.0978L110.93 33.5855L113.723 31.5053C113.269 30.7995 112.759 30.1311 112.198 29.5064L98.5103 32.8948L110.874 28.1975C110.309 27.701 109.709 27.2455 109.079 26.8345L88.2217 30.1804C86.0072 32.9385 84.8 36.3644 84.7983 39.8959H116.194C116.193 37.1571 115.466 34.4671 114.086 32.0978Z" fill="#F2F2F2"/>
<path d="M116.586 9.23273C104.04 3.13836 90.2617 -0.0195931 76.303 9.14623e-05C47.8937 9.14623e-05 22.4942 12.83 5.62387 32.9884C34.5128 26.6842 84.8107 15.7712 116.586 9.23273Z" fill="#F2F2F2"/>
<path d="M100.286 39.8958L89.6001 24.0865C89.6001 24.0865 105.784 29.7136 103.947 39.8958H100.286Z" fill="#3F3D56"/>
<path d="M100.706 39.8958L111.392 24.0865C111.392 24.0865 95.2086 29.7136 97.0453 39.8958H100.706Z" fill="#6C63FF"/>
<path d="M119.241 128H40.0133V10.2822H119.241V128ZM40.3827 127.632H118.872V10.6501H40.3827V127.632Z" fill="#2F2E41"/>
<path d="M119.149 13.0746H40.2903V13.4425H119.149V13.0746Z" fill="#2F2E41"/>
<path d="M42.3218 12.4895C42.7298 12.4895 43.0605 12.1601 43.0605 11.7538C43.0605 11.3475 42.7298 11.0181 42.3218 11.0181C41.9138 11.0181 41.5831 11.3475 41.5831 11.7538C41.5831 12.1601 41.9138 12.4895 42.3218 12.4895Z" fill="#6C63FF"/>
<path d="M44.3533 12.4895C44.7613 12.4895 45.092 12.1601 45.092 11.7538C45.092 11.3475 44.7613 11.0181 44.3533 11.0181C43.9453 11.0181 43.6146 11.3475 43.6146 11.7538C43.6146 12.1601 43.9453 12.4895 44.3533 12.4895Z" fill="#6C63FF"/>
<path d="M46.3848 12.4895C46.7928 12.4895 47.1235 12.1601 47.1235 11.7538C47.1235 11.3475 46.7928 11.0181 46.3848 11.0181C45.9768 11.0181 45.6461 11.3475 45.6461 11.7538C45.6461 12.1601 45.9768 12.4895 46.3848 12.4895Z" fill="#6C63FF"/>
<path d="M46.3848 15.6166H43.0605V17.4559H46.3848V15.6166Z" fill="#6C63FF"/>
<path d="M59.3124 30.1473H43.0605V31.9867H59.3124V30.1473Z" fill="#6C63FF"/>
<path d="M100.866 17.4559L117.117 17.4559V15.6166L100.866 15.6166V17.4559Z" fill="#F2F2F2"/>
<path d="M70.3933 33.274H43.0605V34.3777H70.3933V33.274Z" fill="#F2F2F2"/>
<path d="M68.9158 35.6653H43.0605V36.7689H68.9158V35.6653Z" fill="#F2F2F2"/>
<path d="M61.898 38.0564H43.0605V39.16H61.898V38.0564Z" fill="#F2F2F2"/>
<path d="M60.0511 70.7968H49.3397V71.9004H60.0511V70.7968Z" fill="#F2F2F2"/>
<path d="M59.4721 73.1876H49.3397V74.2912H59.4721V73.1876Z" fill="#F2F2F2"/>
<path d="M56.7219 75.579H49.3397V76.6826H56.7219V75.579Z" fill="#F2F2F2"/>
<path d="M84.983 70.7968H74.2715V71.9004H84.983V70.7968Z" fill="#F2F2F2"/>
<path d="M84.404 73.1876H74.2715V74.2912H84.404V73.1876Z" fill="#F2F2F2"/>
<path d="M81.6538 75.579H74.2715V76.6826H81.6538V75.579Z" fill="#F2F2F2"/>
<path d="M110.838 70.7968H100.127V71.9004H110.838V70.7968Z" fill="#F2F2F2"/>
<path d="M110.259 73.1876H100.127V74.2912H110.259V73.1876Z" fill="#F2F2F2"/>
<path d="M107.509 75.579H100.127V76.6826H107.509V75.579Z" fill="#F2F2F2"/>
<path d="M82.2128 112.55H65.9609V114.389H82.2128V112.55Z" fill="#6C63FF"/>
<path d="M93.2937 115.676H65.9609V116.78H93.2937V115.676Z" fill="#F2F2F2"/>
<path d="M91.8162 118.068H65.9609V119.171H91.8162V118.068Z" fill="#F2F2F2"/>
<path d="M84.7984 120.459H65.9609V121.562H84.7984V120.459Z" fill="#F2F2F2"/>
<path opacity="0.3" d="M112.223 50.0121H47.9546V50.38H112.223V50.0121Z" fill="#6C63FF"/>
<path opacity="0.3" d="M61.5286 56.4497H47.8622V68.5893H61.5286V56.4497Z" fill="#6C63FF"/>
<path d="M86.4605 56.4497H72.7941V68.5893H86.4605V56.4497Z" fill="#3F3D56"/>
<path d="M112.316 56.4497H98.6494V68.5893H112.316V56.4497Z" fill="#3F3D56"/>
<path d="M77.8467 68.5383L77.6664 68.5348C77.6703 68.3359 77.783 63.6493 79.6355 62.3539L79.7391 62.5008C77.9613 63.744 77.8476 68.4905 77.8467 68.5383Z" fill="#6C63FF"/>
<path d="M80.5887 62.2947C81.0866 62.2947 81.4902 61.8927 81.4902 61.3969C81.4902 60.901 81.0866 60.499 80.5887 60.499C80.0909 60.499 79.6873 60.901 79.6873 61.3969C79.6873 61.8927 80.0909 62.2947 80.5887 62.2947Z" fill="#6C63FF"/>
<path d="M80.4065 64.5672C79.9376 64.7139 79.4382 64.7354 78.9583 64.6295C79.263 64.2431 79.6734 63.9527 80.14 63.7933C80.6066 63.6339 81.1095 63.6123 81.5881 63.7311C81.2746 64.108 80.8671 64.3963 80.4065 64.5672Z" fill="#6C63FF"/>
<path d="M103.702 68.5383L103.522 68.5348C103.526 68.3359 103.638 63.6493 105.491 62.3539L105.594 62.5008C103.817 63.744 103.703 68.4905 103.702 68.5383Z" fill="#6C63FF"/>
<path d="M106.444 62.2947C106.942 62.2947 107.346 61.8927 107.346 61.3969C107.346 60.901 106.942 60.499 106.444 60.499C105.946 60.499 105.543 60.901 105.543 61.3969C105.543 61.8927 105.946 62.2947 106.444 62.2947Z" fill="#6C63FF"/>
<path d="M106.262 64.5672C105.793 64.7139 105.294 64.7354 104.814 64.6295C105.118 64.2431 105.529 63.9527 105.995 63.7933C106.462 63.6339 106.965 63.6123 107.443 63.7311C107.13 64.108 106.722 64.3963 106.262 64.5672Z" fill="#6C63FF"/>
<path d="M59.3124 91.7651H43.0605V93.6045H59.3124V91.7651Z" fill="#6C63FF"/>
<path d="M70.3933 94.8918H43.0605V95.9954H70.3933V94.8918Z" fill="#F2F2F2"/>
<path d="M68.9158 97.2831H43.0605V98.3867H68.9158V97.2831Z" fill="#F2F2F2"/>
<path d="M61.898 99.6742H43.0605V100.778H61.898V99.6742Z" fill="#F2F2F2"/>
<path opacity="0.4" d="M103.221 100.051C106.408 100.051 108.991 97.4776 108.991 94.3033C108.991 91.1291 106.408 88.5558 103.221 88.5558C100.033 88.5558 97.4497 91.1291 97.4497 94.3033C97.4497 97.4776 100.033 100.051 103.221 100.051Z" fill="#6C63FF"/>
<path opacity="0.4" d="M92.5402 101.08C94.776 101.08 96.5884 99.2752 96.5884 97.0485C96.5884 94.8217 94.776 93.0166 92.5402 93.0166C90.3044 93.0166 88.492 94.8217 88.492 97.0485C88.492 99.2752 90.3044 101.08 92.5402 101.08Z" fill="#6C63FF"/>
<path d="M21.1759 121.654C29.2336 121.654 35.7656 115.149 35.7656 107.123C35.7656 99.0983 29.2336 92.5927 21.1759 92.5927C13.1182 92.5927 6.58612 99.0983 6.58612 107.123C6.58612 115.149 13.1182 121.654 21.1759 121.654Z" fill="#2F2E41"/>
<path d="M18.9597 118.527H14.5274V126.437H18.9597V118.527Z" fill="#2F2E41"/>
<path d="M27.8244 118.527H23.3921V126.437H27.8244V118.527Z" fill="#2F2E41"/>
<path d="M18.221 127.908C20.2609 127.908 21.9146 127.29 21.9146 126.529C21.9146 125.767 20.2609 125.149 18.221 125.149C16.1811 125.149 14.5274 125.767 14.5274 126.529C14.5274 127.29 16.1811 127.908 18.221 127.908Z" fill="#2F2E41"/>
<path d="M27.0857 127.724C29.1256 127.724 30.7793 127.107 30.7793 126.345C30.7793 125.583 29.1256 124.965 27.0857 124.965C25.0458 124.965 23.3921 125.583 23.3921 126.345C23.3921 127.107 25.0458 127.724 27.0857 127.724Z" fill="#2F2E41"/>
<path d="M21.5453 108.411C24.2992 108.411 26.5317 106.188 26.5317 103.445C26.5317 100.702 24.2992 98.4786 21.5453 98.4786C18.7914 98.4786 16.5589 100.702 16.5589 103.445C16.5589 106.188 18.7914 108.411 21.5453 108.411Z" fill="white"/>
<path d="M21.5453 102.893C22.4632 102.893 23.2074 102.152 23.2074 101.238C23.2074 100.323 22.4632 99.5823 21.5453 99.5823C20.6273 99.5823 19.8831 100.323 19.8831 101.238C19.8831 102.152 20.6273 102.893 21.5453 102.893Z" fill="#3F3D56"/>
<path d="M7.02334 93.6102C5.84528 88.3557 9.61106 83.0462 15.4344 81.7511C21.2578 80.4561 26.9336 83.6659 28.1116 88.9204C29.2897 94.175 25.4303 96.1129 19.607 97.408C13.7836 98.703 8.2014 98.8648 7.02334 93.6102Z" fill="#6C63FF"/>
<path d="M34.2922 92.006C35.99 88.3671 36.4365 84.9869 35.2895 84.4561C34.1425 83.9252 31.8364 86.4448 30.1386 90.0837C28.4408 93.7226 27.9943 97.1028 29.1413 97.6336C30.2883 98.1645 32.5945 95.6449 34.2922 92.006Z" fill="#2F2E41"/>
<path d="M8.8495 101.881C9.96734 101.291 9.3456 97.9386 7.46079 94.3922C5.57599 90.8458 3.14187 88.4486 2.02403 89.0379C0.906188 89.6273 1.52793 92.9799 3.41274 96.5263C5.29754 100.073 7.73166 102.47 8.8495 101.881Z" fill="#2F2E41"/>
<path d="M25.406 78.6485C33.4637 78.6485 39.9957 72.1428 39.9957 64.1177C39.9957 56.0926 33.4637 49.5869 25.406 49.5869C17.3483 49.5869 10.8162 56.0926 10.8162 64.1177C10.8162 72.1428 17.3483 78.6485 25.406 78.6485Z" fill="#2F2E41"/>
<path d="M21.1856 74.946L16.8241 74.1597L15.4095 81.9423L19.771 82.7287L21.1856 74.946Z" fill="#2F2E41"/>
<path d="M29.9085 76.5188L25.5471 75.7324L24.1325 83.5151L28.4939 84.3014L29.9085 76.5188Z" fill="#2F2E41"/>
<path d="M29.8924 87.2639C30.3867 86.6825 29.5256 85.1468 27.9689 83.8338C26.4122 82.5208 24.7495 81.9277 24.2551 82.5091C23.7607 83.0905 24.6219 84.6262 26.1786 85.9392C27.7353 87.2522 29.398 87.8453 29.8924 87.2639Z" fill="#2F2E41"/>
<path d="M21.3512 85.7241C21.8456 85.1427 20.9844 83.607 19.4277 82.294C17.8711 80.981 16.2083 80.3879 15.714 80.9693C15.2196 81.5507 16.0808 83.0864 17.6374 84.3994C19.1941 85.7124 20.8568 86.3055 21.3512 85.7241Z" fill="#2F2E41"/>
<path d="M26.4274 65.5296C29.1813 65.5296 31.4138 63.3061 31.4138 60.5634C31.4138 57.8206 29.1813 55.5972 26.4274 55.5972C23.6735 55.5972 21.441 57.8206 21.441 60.5634C21.441 63.3061 23.6735 65.5296 26.4274 65.5296Z" fill="white"/>
<path d="M28.4768 60.4385C29.3948 60.4385 30.1389 59.6973 30.1389 58.7831C30.1389 57.8688 29.3948 57.1277 28.4768 57.1277C27.5588 57.1277 26.8147 57.8688 26.8147 58.7831C26.8147 59.6973 27.5588 60.4385 28.4768 60.4385Z" fill="#3F3D56"/>
<path d="M13.8967 48.3097C13.6773 42.9302 18.3325 38.3737 24.2944 38.1325C30.2562 37.8913 35.2671 42.0568 35.4866 47.4363C35.706 52.8158 31.5617 54.0381 25.5998 54.2792C19.638 54.5204 14.1161 53.6892 13.8967 48.3097Z" fill="#6C63FF"/>
<path d="M39.3893 63.6936C43.3163 62.7971 46.2707 61.075 45.9881 59.8472C45.7055 58.6193 42.293 58.3507 38.3659 59.2472C34.4389 60.1437 31.4845 61.8658 31.7671 63.0937C32.0497 64.3215 35.4622 64.5901 39.3893 63.6936Z" fill="#2F2E41"/>
<path d="M10.7501 68.4369C14.6771 67.5404 17.6315 65.8183 17.3489 64.5904C17.0663 63.3626 13.6538 63.094 9.72678 63.9905C5.79977 64.887 2.84538 66.6091 3.12796 67.8369C3.41054 69.0648 6.82308 69.3334 10.7501 68.4369Z" fill="#2F2E41"/>
<path d="M21.3989 69.8441C21.2418 70.7081 21.4358 71.5989 21.9382 72.3204C22.4406 73.042 23.2103 73.5353 24.0778 73.6917C24.9454 73.8481 25.8398 73.6549 26.5643 73.1545C27.2888 72.6541 27.784 71.8876 27.941 71.0236C28.2681 69.2243 26.8713 68.5876 25.0647 68.2619C23.2582 67.9362 21.7259 68.0448 21.3989 69.8441Z" fill="white"/>
<path d="M59.759 52.314L46.6683 48.4053L43.168 60.0336L56.2587 63.9423L59.759 52.314Z" fill="#3F3D56"/>
<path d="M48.0225 61.4299L47.8508 61.375C47.9118 61.1856 49.3711 56.7286 51.5191 56.0176L51.5759 56.188C49.5146 56.8702 48.0371 61.3844 48.0225 61.4299Z" fill="#6C63FF"/>
<path d="M52.7082 56.2713C53.2061 56.2713 53.6097 55.8693 53.6097 55.3734C53.6097 54.8776 53.2061 54.4756 52.7082 54.4756C52.2103 54.4756 51.8067 54.8776 51.8067 55.3734C51.8067 55.8693 52.2103 56.2713 52.7082 56.2713Z" fill="#6C63FF"/>
<path d="M51.6195 58.358C51.128 58.3644 50.6435 58.2421 50.2144 58.0035C50.6176 57.7205 51.0945 57.5598 51.5874 57.5405C52.0803 57.5213 52.5682 57.6444 52.9925 57.8951C52.5834 58.1665 52.11 58.3261 51.6195 58.358Z" fill="#6C63FF"/>
</svg>
