<svg width="645" height="372" viewBox="0 0 645 372" fill="none" xmlns="http://www.w3.org/2000/svg">
<path fill-rule="evenodd" clip-rule="evenodd" d="M259.536 651.947C199.058 647.39 141.594 615.959 104.547 564.11C67.3056 511.99 50.0418 440.733 59.0057 371.298C67.3155 306.931 114.52 259.13 150.718 206.468C183.768 158.386 209.871 96.0831 260.414 78.2852C310.038 60.8109 352.698 110.306 402.675 117.747C461.441 126.496 541.545 73.7597 577.134 125.439C612.8 177.231 550.136 255.53 544.503 323.699C539.784 380.799 571.832 438.567 546.993 490.169C521.613 542.896 464.796 561.032 417.432 587.687C365.768 616.764 315.122 656.135 259.536 651.947Z" fill="url(#paint0_linear)"/>
<defs>
<linearGradient id="paint0_linear" x1="344.584" y1="538.892" x2="193.889" y2="86.0102" gradientUnits="userSpaceOnUse">
<stop stop-color="#6C63FF"/>
<stop offset="1" stop-color="#E3216D"/>
</linearGradient>
</defs>
</svg>
