<svg width="467" height="689" viewBox="0 0 467 689" fill="none" xmlns="http://www.w3.org/2000/svg">
<path fill-rule="evenodd" clip-rule="evenodd" d="M393.735 69.6309C458.682 76.1493 521.384 107.932 562.966 158.247C604.766 208.826 625.868 276.742 618.809 341.977C612.266 402.451 563.455 445.858 526.611 494.257C492.971 538.448 467.294 596.321 413.808 611.276C361.293 625.958 313.786 577.66 259.982 568.804C196.715 558.39 112.845 605.251 72.8319 555.15C32.731 504.939 96.9846 433.301 100.522 369.139C103.484 315.396 67.0409 259.675 91.7562 211.86C117.01 163.002 177.205 147.959 226.961 124.524C281.236 98.9613 334.041 63.6398 393.735 69.6309Z" fill="url(#paint0_linear)"/>
<defs>
<linearGradient id="paint0_linear" x1="306.779" y1="173.267" x2="424.459" y2="622.23" gradientUnits="userSpaceOnUse">
<stop stop-color="#6C63FF"/>
<stop offset="1" stop-color="#E3216D"/>
</linearGradient>
</defs>
</svg>
