<svg width="474" height="441" viewBox="0 0 474 441" fill="none" xmlns="http://www.w3.org/2000/svg">
<path fill-rule="evenodd" clip-rule="evenodd" d="M8.42294 -66.3095C53.1648 -97.5801 117.853 -97.6934 167.889 -75.8739C213.541 -55.9659 215.034 11.1535 254.805 41.1321C301.589 76.3972 385.65 56.409 412.477 108.493C438.224 158.481 408.849 225.771 371.603 267.895C337.565 306.389 277.302 298.123 229.088 315.893C192.001 329.562 161.615 360.318 122.092 359.855C80.5368 359.368 38.1486 343.638 9.72335 313.322C-17.6738 284.103 -15.7807 240.413 -26.1722 201.73C-37.3389 160.161 -58.8083 121.406 -53.2986 78.7166C-46.4047 25.3038 -35.72 -35.4574 8.42294 -66.3095Z" fill="url(#paint0_linear)"/>
<defs>
<linearGradient id="paint0_linear" x1="39.3018" y1="-84.6651" x2="277.081" y2="327.181" gradientUnits="userSpaceOnUse">
<stop stop-color="#6C63FF"/>
<stop offset="1" stop-color="#E3216D"/>
</linearGradient>
</defs>
</svg>
